<?xml version="1.0" encoding="UTF-8" standalone="no"?>
<svg
   xmlns:dc="http://purl.org/dc/elements/1.1/"
   xmlns:cc="http://creativecommons.org/ns#"
   xmlns:rdf="http://www.w3.org/1999/02/22-rdf-syntax-ns#"
   xmlns:svg="http://www.w3.org/2000/svg"
   xmlns="http://www.w3.org/2000/svg"
   xmlns:xlink="http://www.w3.org/1999/xlink"
   xmlns:sodipodi="http://sodipodi.sourceforge.net/DTD/sodipodi-0.dtd"
   xmlns:inkscape="http://www.inkscape.org/namespaces/inkscape"
   width="2100"
   height="500"
   viewBox="0 0 2100 500"
   version="1.1"
   id="svg21"
   sodipodi:docname="ha-login.svg"
   inkscape:version="0.92.4 (5da689c313, 2019-01-14)">
  <metadata
     id="metadata25">
    <rdf:RDF>
      <cc:Work
         rdf:about="">
        <dc:format>image/svg+xml</dc:format>
        <dc:type
           rdf:resource="http://purl.org/dc/dcmitype/StillImage" />
        <dc:title>logo</dc:title>
      </cc:Work>
    </rdf:RDF>
  </metadata>
  <sodipodi:namedview
     pagecolor="#ffffff"
     bordercolor="#666666"
     borderopacity="1"
     objecttolerance="10"
     gridtolerance="10"
     guidetolerance="10"
     inkscape:pageopacity="0"
     inkscape:pageshadow="2"
     inkscape:window-width="1920"
     inkscape:window-height="1028"
     id="namedview23"
     showgrid="false"
     inkscape:zoom="0.3337544"
     inkscape:cx="938.36397"
     inkscape:cy="-35.01411"
     inkscape:window-x="0"
     inkscape:window-y="0"
     inkscape:window-maximized="1"
     inkscape:current-layer="fill/blue"
     fit-margin-top="0"
     fit-margin-left="0"
     fit-margin-right="0"
     fit-margin-bottom="0" />
  <!-- Generator: Sketch 47.1 (45422) - http://www.bohemiancoding.com/sketch -->
  <title
     id="title2">logo</title>
  <desc
     id="desc4">Created with Sketch.</desc>
  <defs
     id="defs7">
    <path
       d="M 44.041379,343.22228 V 209.58016 H 9.2883553 v 0 c -5.154616,0 -9.33325782,-4.17864 -9.33325782,-9.33325 0,-2.44791 0.96171005,-4.79783 2.67789262,-6.54338 L 189.63862,3.497414 v 0 c 4.51726,-4.5945709 11.90386,-4.6572431 16.49843,-0.1399822 0.0404,0.039691 0.0805,0.079675 0.12024,0.1199491 l 97.60103,98.7938391 v -18.297357 0 c 0,-4.295513 3.4822,-7.777715 7.77771,-7.777715 h 32.41078 v 0 c 4.29551,0 7.77771,3.482202 7.77771,7.777715 v 67.137967 l 41.56811,42.6183 c 3.59911,3.69005 3.5254,9.59908 -0.16465,13.19819 -1.74316,1.70021 -4.08175,2.65184 -6.51677,2.65184 h -34.88669 v 133.64212 c 0,4.29552 -3.4822,7.77772 -7.77771,7.77772 H 51.819093 c -4.295513,0 -7.777714,-3.4822 -7.777714,-7.77772 z M 250.4341,179.96197 c 0.93644,-1.96383 1.46083,-4.16333 1.46083,-6.48575 0,-8.30819 -6.711,-15.04331 -14.98944,-15.04331 -8.27844,0 -14.98944,6.73512 -14.98944,15.04331 0,8.30819 6.711,15.04331 14.98944,15.04331 2.3141,0 4.50573,-0.52628 6.46253,-1.46608 l 21.51776,21.5951 v 20.91809 l -26.98099,27.07795 v -19.83957 c 5.82186,-2.06513 9.99296,-7.63737 9.99296,-14.18732 0,-8.30819 -6.711,-15.04331 -14.98944,-15.04331 -8.27844,0 -14.98944,6.73512 -14.98944,15.04331 0,6.54995 4.1711,12.12219 9.99296,14.18732 v 29.86845 l -24.9824,25.07218 V 144.46376 l 20.51847,-20.59221 c 1.95679,0.9398 4.14842,1.46608 6.46252,1.46608 8.27844,0 14.98944,-6.73512 14.98944,-15.04331 0,-8.30819 -6.711,-15.043312 -14.98944,-15.043312 -8.27844,0 -14.98944,6.735122 -14.98944,15.043312 0,2.32242 0.52439,4.52192 1.46083,6.48575 l -18.44886,18.51516 -18.44886,-18.51516 c 0.93644,-1.96383 1.46083,-4.16333 1.46083,-6.48575 0,-8.30819 -6.711,-15.043312 -14.98944,-15.043312 -8.27844,0 -14.98944,6.735122 -14.98944,15.043312 0,8.30819 6.711,15.04331 14.98944,15.04331 2.3141,0 4.50573,-0.52628 6.46252,-1.46608 l 20.51847,20.59221 v 105.16062 l -35.97465,-36.10394 v -28.86557 c 5.82186,-2.06512 9.99296,-7.63736 9.99296,-14.18731 0,-8.30819 -6.711,-15.04331 -14.98944,-15.04331 -8.27844,0 -14.98944,6.73512 -14.98944,15.04331 0,6.54995 4.1711,12.12219 9.99296,14.18731 v 18.8367 l -27.98029,-28.08085 v -27.86268 c 5.82186,-2.06512 9.99296,-7.63736 9.99296,-14.18731 0,-8.30819 -6.711,-15.04331 -14.98944,-15.04331 -8.27843,0 -14.989436,6.73512 -14.989436,15.04331 0,6.54995 4.171096,12.12219 9.992956,14.18731 v 32.01678 l 30.90716,31.01823 h -17.76994 c -2.05773,-5.84278 -7.61002,-10.02887 -14.13651,-10.02887 -8.278441,0 -14.989441,6.73512 -14.989441,15.04331 0,8.30819 6.711,15.04331 14.989441,15.04331 6.52649,0 12.07878,-4.18609 14.13651,-10.02888 h 27.7629 l 43.04074,43.19543 v 75.07401 l -22.98381,-23.06641 v -28.86557 c 5.82186,-2.06513 9.99296,-7.63736 9.99296,-14.18731 0,-8.3082 -6.711,-15.04331 -14.98944,-15.04331 -8.27843,0 -14.98943,6.73511 -14.98943,15.04331 0,6.54995 4.1711,12.12218 9.99296,14.18731 v 18.83669 l -33.4383,-33.55847 c 0.93644,-1.96383 1.46083,-4.16333 1.46083,-6.48575 0,-8.30819 -6.711,-15.04331 -14.98944,-15.04331 -8.27844,0 -14.989442,6.73512 -14.989442,15.04331 0,8.30819 6.711002,15.04331 14.989442,15.04331 2.3141,0 4.50572,-0.52627 6.46252,-1.46607 l 33.4383,33.55847 h -17.76994 c -2.05774,-5.84278 -7.61002,-10.02887 -14.13651,-10.02887 -8.27844,0 -14.98944,6.73511 -14.98944,15.04331 0,8.30819 6.711,15.04331 14.98944,15.04331 6.52649,0 12.07877,-4.18609 14.13651,-10.02888 h 27.7629 l 27.98028,28.08085 h 14.13218 l 28.97958,-29.08374 h 26.76361 c 2.05773,5.84279 7.61001,10.02888 14.13651,10.02888 8.27843,0 14.98943,-6.73512 14.98943,-15.04331 0,-8.30819 -6.711,-15.04331 -14.98943,-15.04331 -6.5265,0 -12.07878,4.18609 -14.13651,10.02887 H 229.8394 l -26.90997,27.00669 v -32.95274 l 32.04849,-32.16367 h 51.746 c 2.05773,5.84279 7.61001,10.02888 14.13651,10.02888 8.27844,0 14.98944,-6.73512 14.98944,-15.04331 0,-8.30819 -6.711,-15.04331 -14.98944,-15.04331 -6.5265,0 -12.07878,4.18609 -14.13651,10.02887 h -41.75304 l 29.90786,-30.01535 v -25.07218 l 21.51776,-21.5951 c 1.9568,0.9398 4.14842,1.46608 6.46252,1.46608 8.27844,0 14.98944,-6.73512 14.98944,-15.04331 0,-8.30819 -6.711,-15.04331 -14.98944,-15.04331 -8.27844,0 -14.98944,6.73512 -14.98944,15.04331 0,2.32242 0.52439,4.52192 1.46083,6.48575 l -14.45167,14.50361 v -45.91465 c 5.82186,-2.06513 9.99296,-7.63737 9.99296,-14.18732 0,-8.30819 -6.71101,-15.04331 -14.98944,-15.04331 -8.27844,0 -14.98944,6.73512 -14.98944,15.04331 0,6.54995 4.1711,12.12219 9.99296,14.18732 v 45.91465 z M 120.98717,323.90932 c -3.31138,0 -5.99578,-2.69405 -5.99578,-6.01732 0,-3.32328 2.6844,-6.01733 5.99578,-6.01733 3.31137,0 5.99577,2.69405 5.99577,6.01733 0,3.32327 -2.6844,6.01732 -5.99577,6.01732 z m 43.96901,-45.12993 c -3.31137,0 -5.99577,-2.69405 -5.99577,-6.01732 0,-3.32328 2.6844,-6.01733 5.99577,-6.01733 3.31138,0 5.99578,2.69405 5.99578,6.01733 0,3.32327 -2.6844,6.01732 -5.99578,6.01732 z m -51.96338,-7.02021 c -3.31138,0 -5.99578,-2.69405 -5.99578,-6.01733 0,-3.32327 2.6844,-6.01732 5.99578,-6.01732 3.31137,0 5.99577,2.69405 5.99577,6.01732 0,3.32328 -2.6844,6.01733 -5.99577,6.01733 z m -4.99648,-50.14437 c -3.31138,0 -5.99578,-2.69405 -5.99578,-6.01732 0,-3.32328 2.6844,-6.01733 5.99578,-6.01733 3.31137,0 5.99577,2.69405 5.99577,6.01733 0,3.32327 -2.6844,6.01732 -5.99577,6.01732 z m 124.91199,7.02021 c -3.31138,0 -5.99578,-2.69405 -5.99578,-6.01732 0,-3.32328 2.6844,-6.01732 5.99578,-6.01732 3.31137,0 5.99577,2.69404 5.99577,6.01732 0,3.32327 -2.6844,6.01732 -5.99577,6.01732 z m 67.95212,46.13282 c -3.31138,0 -5.99577,-2.69405 -5.99577,-6.01732 0,-3.32328 2.68439,-6.01733 5.99577,-6.01733 3.31138,0 5.99578,2.69405 5.99578,6.01733 0,3.32327 -2.6844,6.01732 -5.99578,6.01732 z m -25.98169,48.13859 c -3.31138,0 -5.99578,-2.69405 -5.99578,-6.01732 0,-3.32328 2.6844,-6.01733 5.99578,-6.01733 3.31137,0 5.99577,2.69405 5.99577,6.01733 0,3.32327 -2.6844,6.01732 -5.99577,6.01732 z m 27.98028,-143.41289 c -3.31137,0 -5.99577,-2.69404 -5.99577,-6.01732 0,-3.32328 2.6844,-6.01732 5.99577,-6.01732 3.31138,0 5.99578,2.69404 5.99578,6.01732 0,3.32328 -2.6844,6.01732 -5.99578,6.01732 z m -32.97676,-39.1126 c -3.31138,0 -5.99578,-2.69405 -5.99578,-6.01733 0,-3.32327 2.6844,-6.01732 5.99578,-6.01732 3.31137,0 5.99577,2.69405 5.99577,6.01732 0,3.32328 -2.6844,6.01733 -5.99577,6.01733 z m -39.97184,-24.0693 c -3.31138,0 -5.99578,-2.69405 -5.99578,-6.01732 0,-3.32328 2.6844,-6.01733 5.99578,-6.01733 3.31137,0 5.99578,2.69405 5.99578,6.01733 0,3.32327 -2.68441,6.01732 -5.99578,6.01732 z m -63.95494,0 c -3.31137,0 -5.99577,-2.69405 -5.99577,-6.01732 0,-3.32328 2.6844,-6.01733 5.99577,-6.01733 3.31138,0 5.99578,2.69405 5.99578,6.01733 0,3.32327 -2.6844,6.01732 -5.99578,6.01732 z m -51.96339,23.06641 c -3.31137,0 -5.99577,-2.69405 -5.99577,-6.01732 0,-3.32328 2.6844,-6.01733 5.99577,-6.01733 3.31138,0 5.99578,2.69405 5.99578,6.01733 0,3.32327 -2.6844,6.01732 -5.99578,6.01732 z m 37.97325,37.10683 c -3.31138,0 -5.99578,-2.69405 -5.99578,-6.01732 0,-3.32328 2.6844,-6.01733 5.99578,-6.01733 3.31137,0 5.99577,2.69405 5.99577,6.01733 0,3.32327 -2.6844,6.01732 -5.99577,6.01732 z m 84.94015,3.00866 c -3.31137,0 -5.99577,-2.69404 -5.99577,-6.01732 0,-3.32328 2.6844,-6.01732 5.99577,-6.01732 3.31138,0 5.99578,2.69404 5.99578,6.01732 0,3.32328 -2.6844,6.01732 -5.99578,6.01732 z"
       id="path-1"
       inkscape:connector-curvature="0" />
  </defs>
  <g
     id="Page-1"
     style="fill:none;fill-rule:evenodd;stroke:none;stroke-width:1">
    <g
       id="logo">
      <g
         id="fill/blue"
         style="fill:#41bdf5">
        <rect
           id="Rectangle-2"
           x="0"
           y="0"
           width="2100"
           height="500"
           style="stroke-width:2.04939008;fill:#2eade6;fill-opacity:1"
           ry="50.847458" />
        <text
           xml:space="preserve"
           style="font-style:normal;font-weight:normal;font-size:8px;line-height:0;font-family:sans-serif;letter-spacing:0px;word-spacing:0px;fill:#000000;fill-opacity:1;stroke:none;stroke-width:1"
           x="575.65143"
           y="198.94792"
           id="text881"><tspan
             id="tspan852"
             style="font-style:normal;font-variant:normal;font-weight:normal;font-stretch:normal;font-size:173.33332825px;line-height:1.29999995;font-family:Roboto;-inkscape-font-specification:Roboto;fill:#ffffff;stroke-width:1">Log in to</tspan><tspan
             sodipodi:role="line"
             x="575.65143"
             y="424.28125"
             style="font-style:normal;font-variant:normal;font-weight:normal;font-stretch:normal;font-size:173.33332825px;line-height:1.29999995;font-family:Roboto;-inkscape-font-specification:Roboto;fill:#ffffff;stroke-width:1"
             id="tspan887">Home Assistant</tspan></text>
      </g>
      <g
         id="house-with-large-tree"
         transform="translate(52,70)">
        <mask
           id="mask-2"
           fill="white">
          <use
             xlink:href="#path-1"
             id="use11"
             x="0"
             y="0"
             width="100%"
             height="100%" />
        </mask>
        <g
           id="large-tree"
           style="fill-rule:nonzero" />
        <g
           id="fill/white"
           mask="url(#mask-2)"
           style="fill:#ffffff;fill-rule:evenodd">
          <rect
             id="rect15"
             x="0"
             y="0"
             width="396"
             height="351" />
        </g>
      </g>
    </g>
  </g>
</svg>
