<?xml version="1.0" encoding="UTF-8" standalone="no"?>
<svg xmlns:dc="http://purl.org/dc/elements/1.1/"
  xmlns:cc="http://creativecommons.org/ns#"
  xmlns:rdf="http://www.w3.org/1999/02/22-rdf-syntax-ns#"
  xmlns:svg="http://www.w3.org/2000/svg"
  xmlns="http://www.w3.org/2000/svg"
  xmlns:sodipodi="http://sodipodi.sourceforge.net/DTD/sodipodi-0.dtd"
  xmlns:inkscape="http://www.inkscape.org/namespaces/inkscape" version="1.1" width="480" height="480" id="svg180" sodipodi:docname="icon-rect.svg" inkscape:version="0.92.3 (2405546, 2018-03-11)">
  <metadata id="metadata184">
    <rdf:RDF>
      <cc:Work rdf:about="">
        <dc:format>image/svg+xml</dc:format>
        <dc:type rdf:resource="http://purl.org/dc/dcmitype/StillImage" />
        <dc:title></dc:title>
      </cc:Work>
    </rdf:RDF>
  </metadata>
  <sodipodi:namedview pagecolor="#ffffff" bordercolor="#666666" borderopacity="1" objecttolerance="10" gridtolerance="10" guidetolerance="10" inkscape:pageopacity="0" inkscape:pageshadow="2" inkscape:window-width="1920" inkscape:window-height="1014" id="namedview182" showgrid="false" inkscape:zoom="0.86915209" inkscape:cx="124.30693" inkscape:cy="236.70553" inkscape:window-x="0" inkscape:window-y="0" inkscape:window-maximized="1" inkscape:current-layer="svg180" />
  <defs id="defs25">
    <linearGradient x1="6.9949198" y1="6.2039299" x2="62.355228" y2="59.996441" gradientUnits="userSpaceOnUse" id="color-1">
      <stop offset="0" stop-color="#000000" stop-opacity="0.36" id="stop2" />
      <stop offset="1" stop-color="#000000" stop-opacity="0" id="stop4" />
    </linearGradient>
    <filter id="dropshadow-base">
      <feColorMatrix type="matrix" values="0 0 0 0 0  0 0 0 0 0  0 0 0 0 0  0 0 0 .8 0" id="feColorMatrix7" />
      <feOffset dx="0" dy="1" id="feOffset9" />
      <feGaussianBlur stdDeviation="1" id="feGaussianBlur11" result="result1" />
      <feComposite in="SourceGraphic" in2="result1" id="feComposite13" />
    </filter>
    <filter id="dropshadow-banner" x="-0.1" y="-0.1" width="1.2" height="1.3">
      <feColorMatrix type="matrix" values="0 0 0 0 0  0 0 0 0 0  0 0 0 0 0  0 0 0 .4 0" id="feColorMatrix16" />
      <feOffset dx="0" dy="1" id="feOffset18" />
      <feGaussianBlur stdDeviation="0.5" id="feGaussianBlur20" result="result1" />
      <feComposite in="SourceGraphic" in2="result1" id="feComposite22" />
    </filter>
  </defs>
  <g stroke-width="none" stroke-miterlimit="10" font-weight="none" font-size="none" text-anchor="none" style="font-family:none;mix-blend-mode:normal;fill:none;fill-rule:nonzero;stroke:none;stroke-linecap:butt;stroke-linejoin:miter;stroke-miterlimit:10;stroke-dasharray:none;stroke-dashoffset:0" id="g178" transform="matrix(10.909091,0,0,10.909091,-21.818184,-21.818184)">
    <path d="M 7,43 C 5.89543,43 5,42.10457 5,41 V 7 C 5,5.89543 5.89543,5 7,5 h 34 c 1.10457,0 2,0.89543 2,2 v 34 c 0,1.10457 -0.89543,2 -2,2 z" id="base 1 33" inkscape:connector-curvature="0" style="fill:#607d8b;stroke-width:1" />
    <path d="M 10.28556,38.78323 V 26.56811 L 6.99492,23.27747 24.06847,6.20392 43,25.13545 v 15.86454 c 0,1.10457 -0.89543,2 -2,2 H 14.50233 Z m 27.56583,0 v -3.93581 l -3.93581,3.93581 z" id="path28" inkscape:connector-curvature="0" style="fill:url(#color-1);stroke-width:1" />
    <path d="M 24.06847,6.20393 41.14202,23.27748 H 37.85138 V 38.78323 H 10.28556 V 23.27748 H 6.99492 Z" id="rect840 1 1" inkscape:connector-curvature="0" style="fill:none;stroke-width:0" />
    <g id="svg1137 9">
      <g id="layer1 1">
        <g id="g1692 1">
          <path d="m 13.73131,22.49358 h 20.63142 c 0.02327,0 0.042,0.02173 0.042,0.04873 v 12.7587 c 0,0.027 -0.01873,0.04873 -0.042,0.04873 H 13.73131 c -0.02327,0 -0.042,-0.02174 -0.042,-0.04873 v -12.7587 c 0,-0.027 0.01873,-0.04873 0.042,-0.04873 z" id="rect840 1" inkscape:connector-curvature="0" style="fill:#424242;stroke-width:0.18086" />
          <path d="m 34.40564,35.33755 c -10e-6,-2.45848 -6e-5,-12.84397 -6e-5,-12.84397 H 26.4392 v 6.20914 h -0.94829 v -6.20914 h -5.97422 v 0.94829 c 0,0 0.79939,0.39259 0.94829,0.94829 h -2.08624 c 0.14227,-0.53097 0.94829,-0.94829 0.94829,-0.94829 v -0.94829 h -5.59572 v 6.20914 h 20.67427 l 3e-5,0.77614 H 22.64604 v 5.85871 h -0.94829 c -0.15805,0 0.15805,-5.85871 0,-5.85871 h -7.96641 l -3e-5,5.85871 M 24.06847,6.20393 41.14202,23.27748 H 37.85138 V 38.78323 H 10.28556 V 23.27748 H 6.99492 Z" id="path842 1" inkscape:connector-curvature="0" style="fill:#e0e0e0;stroke-width:24.54369926" />
        </g>
        <g id="layer2 1" font-weight="400" font-size="14" style="font-weight:400;font-size:14px;font-family:Roboto, sans-serif;text-anchor:start;fill:#000000;stroke-width:1" />
      </g>
    </g>
    <path d="M 2,24 C 2,11.84974 11.84974,2 24,2 36.15026,2 46,11.84974 46,24 46,36.15026 36.15026,46 24,46 11.84974,46 2,36.15026 2,24 Z" id="base 1 29 1" inkscape:connector-curvature="0" style="fill:none;stroke-width:1" />
    <path d="M 2,24 C 2,11.84974 11.84974,2 24,2 36.15026,2 46,11.84974 46,24 46,36.15026 36.15026,46 24,46 11.84974,46 2,36.15026 2,24 Z" id="base 1 25 1" inkscape:connector-curvature="0" style="fill:none;stroke-width:1" />
    <path d="M 2,24 C 2,11.84974 11.84974,2 24,2 36.15026,2 46,11.84974 46,24 46,36.15026 36.15026,46 24,46 11.84974,46 2,36.15026 2,24 Z" id="base 1 21 1" inkscape:connector-curvature="0" style="fill:none;stroke-width:1" />
    <path d="M 2,24 C 2,11.84974 11.84974,2 24,2 36.15026,2 46,11.84974 46,24 46,36.15026 36.15026,46 24,46 11.84974,46 2,36.15026 2,24 Z" id="base 1 17 1" inkscape:connector-curvature="0" style="fill:none;stroke-width:1" />
    <path d="M 2,24 C 2,11.84974 11.84974,2 24,2 36.15026,2 46,11.84974 46,24 46,36.15026 36.15026,46 24,46 11.84974,46 2,36.15026 2,24 Z" id="base 1 13 1" inkscape:connector-curvature="0" style="fill:none;stroke-width:1" />
    <path d="M 2,24 C 2,11.84974 11.84974,2 24,2 36.15026,2 46,11.84974 46,24 46,36.15026 36.15026,46 24,46 11.84974,46 2,36.15026 2,24 Z" id="base 1 9 1" inkscape:connector-curvature="0" style="fill:none;stroke-width:1" />
    <path d="M 2,24 C 2,11.84974 11.84974,2 24,2 36.15026,2 46,11.84974 46,24 46,36.15026 36.15026,46 24,46 11.84974,46 2,36.15026 2,24 Z" id="base 1 5 1" inkscape:connector-curvature="0" style="fill:none;stroke-width:1" />
    <path d="M 2,24 C 2,11.84974 11.84974,2 24,2 36.15026,2 46,11.84974 46,24 46,36.15026 36.15026,46 24,46 11.84974,46 2,36.15026 2,24 Z" id="base 1 1 1" inkscape:connector-curvature="0" style="fill:none;stroke-width:1" />
    <g id="svg1137 1 1" font-weight="400" font-size="14" style="font-weight:400;font-size:14px;font-family:Roboto, sans-serif;text-anchor:start;fill:#000000;stroke-width:1">
      <g id="layer1 1 1">
        <g id="g1692 1 1" />
        <g id="layer2 1 1" />
      </g>
    </g>
    <rect x="2" y="2" width="44" height="22" id="rect49" style="fill:none;stroke-width:1" />
    <path d="M 2,24 V 2 h 44 v 22 z" id="path51" inkscape:connector-curvature="0" style="fill:none;stroke-width:1" />
    <path d="M 2,24 V 2 h 44 v 22 z" id="path53" inkscape:connector-curvature="0" style="fill:none;stroke-width:1" />
    <path d="M 2,24 V 2 h 44 v 22 z" id="path55" inkscape:connector-curvature="0" style="fill:none;stroke-width:1" />
    <path d="M 2,24 V 2 h 44 v 22 z" id="path57" inkscape:connector-curvature="0" style="fill:none;stroke-width:1" />
    <g id="svg1137 2 1" font-weight="400" font-size="14" style="font-weight:400;font-size:14px;font-family:Roboto, sans-serif;text-anchor:start;fill:#000000;stroke-width:1">
      <g id="g63">
        <g id="g59" />
        <g id="g61" />
      </g>
    </g>
    <rect x="2" y="2" width="44" height="22" id="rect66" style="fill:none;stroke-width:1" />
    <path d="M 2,24 V 2 h 44 v 22 z" id="path68" inkscape:connector-curvature="0" style="fill:none;stroke-width:1" />
    <path d="M 2,24 V 2 h 44 v 22 z" id="path70" inkscape:connector-curvature="0" style="fill:none;stroke-width:1" />
    <path d="M 2,24 V 2 h 44 v 22 z" id="path72" inkscape:connector-curvature="0" style="fill:none;stroke-width:1" />
    <path d="M 2,24 V 2 h 44 v 22 z" id="path74" inkscape:connector-curvature="0" style="fill:none;stroke-width:1" />
    <g id="svg1137 3 1" font-weight="400" font-size="14" style="font-weight:400;font-size:14px;font-family:Roboto, sans-serif;text-anchor:start;fill:#000000;stroke-width:1">
      <g id="g80">
        <g id="g76" />
        <g id="g78" />
      </g>
    </g>
    <rect x="2" y="2" width="44" height="22" id="rect83" style="fill:none;stroke-width:1" />
    <path d="M 2,24 V 2 h 44 v 22 z" id="path85" inkscape:connector-curvature="0" style="fill:none;stroke-width:1" />
    <path d="M 2,24 V 2 h 44 v 22 z" id="path87" inkscape:connector-curvature="0" style="fill:none;stroke-width:1" />
    <path d="M 2,24 V 2 h 44 v 22 z" id="path89" inkscape:connector-curvature="0" style="fill:none;stroke-width:1" />
    <path d="M 2,24 V 2 h 44 v 22 z" id="path91" inkscape:connector-curvature="0" style="fill:none;stroke-width:1" />
    <g id="svg1137 4 1" font-weight="400" font-size="14" style="font-weight:400;font-size:14px;font-family:Roboto, sans-serif;text-anchor:start;fill:#000000;stroke-width:1">
      <g id="g97">
        <g id="g93" />
        <g id="g95" />
      </g>
    </g>
    <rect x="2" y="2" width="44" height="22" id="rect100" style="fill:none;stroke-width:1" />
    <path d="M 2,24 V 2 h 44 v 22 z" id="path102" inkscape:connector-curvature="0" style="fill:none;stroke-width:1" />
    <path d="M 2,24 V 2 h 44 v 22 z" id="path104" inkscape:connector-curvature="0" style="fill:none;stroke-width:1" />
    <path d="M 2,24 V 2 h 44 v 22 z" id="path106" inkscape:connector-curvature="0" style="fill:none;stroke-width:1" />
    <path d="M 2,24 V 2 h 44 v 22 z" id="path108" inkscape:connector-curvature="0" style="fill:none;stroke-width:1" />
    <g id="svg1137 5 1" font-weight="400" font-size="14" style="font-weight:400;font-size:14px;font-family:Roboto, sans-serif;text-anchor:start;fill:#000000;stroke-width:1">
      <g id="g114">
        <g id="g110" />
        <g id="g112" />
      </g>
    </g>
    <rect x="2" y="2" width="44" height="22" id="rect117" style="fill:none;stroke-width:1" />
    <path d="M 2,24 V 2 h 44 v 22 z" id="path119" inkscape:connector-curvature="0" style="fill:none;stroke-width:1" />
    <path d="M 2,24 V 2 h 44 v 22 z" id="path121" inkscape:connector-curvature="0" style="fill:none;stroke-width:1" />
    <path d="M 2,24 V 2 h 44 v 22 z" id="path123" inkscape:connector-curvature="0" style="fill:none;stroke-width:1" />
    <path d="M 2,24 V 2 h 44 v 22 z" id="path125" inkscape:connector-curvature="0" style="fill:none;stroke-width:1" />
    <g id="svg1137 6 1" font-weight="400" font-size="14" style="font-weight:400;font-size:14px;font-family:Roboto, sans-serif;text-anchor:start;fill:#000000;stroke-width:1">
      <g id="g131">
        <g id="g127" />
        <g id="g129" />
      </g>
    </g>
    <rect x="2" y="2" width="44" height="22" id="rect134" style="fill:none;stroke-width:1" />
    <path d="M 2,24 V 2 h 44 v 22 z" id="path136" inkscape:connector-curvature="0" style="fill:none;stroke-width:1" />
    <path d="M 2,24 V 2 h 44 v 22 z" id="path138" inkscape:connector-curvature="0" style="fill:none;stroke-width:1" />
    <path d="M 2,24 V 2 h 44 v 22 z" id="path140" inkscape:connector-curvature="0" style="fill:none;stroke-width:1" />
    <path d="M 2,24 V 2 h 44 v 22 z" id="path142" inkscape:connector-curvature="0" style="fill:none;stroke-width:1" />
    <g id="svg1137 7 1" font-weight="400" font-size="14" style="font-weight:400;font-size:14px;font-family:Roboto, sans-serif;text-anchor:start;fill:#000000;stroke-width:1">
      <g id="g148">
        <g id="g144" />
        <g id="g146" />
      </g>
    </g>
    <rect x="2" y="2" width="44" height="22" id="rect151" style="fill:none;stroke-width:1" />
    <path d="M 2,24 V 2 h 44 v 22 z" id="path153" inkscape:connector-curvature="0" style="fill:none;stroke-width:1" />
    <path d="M 2,24 V 2 h 44 v 22 z" id="path155" inkscape:connector-curvature="0" style="fill:none;stroke-width:1" />
    <path d="M 2,24 V 2 h 44 v 22 z" id="path157" inkscape:connector-curvature="0" style="fill:none;stroke-width:1" />
    <path d="M 2,24 V 2 h 44 v 22 z" id="path159" inkscape:connector-curvature="0" style="fill:none;stroke-width:1" />
    <g id="svg1137 8 1" font-weight="400" font-size="14" style="font-weight:400;font-size:14px;font-family:Roboto, sans-serif;text-anchor:start;fill:#000000;stroke-width:1">
      <g id="g165">
        <g id="g161" />
        <g id="g163" />
      </g>
    </g>
    <rect x="2" y="2" width="44" height="22" id="rect168" style="fill:none;stroke-width:1" />
    <path d="M 2,24 V 2 h 44 v 22 z" id="path170" inkscape:connector-curvature="0" style="fill:none;stroke-width:1" />
    <path d="M 2,24 V 2 h 44 v 22 z" id="path172" inkscape:connector-curvature="0" style="fill:none;stroke-width:1" />
    <path d="M 2,24 V 2 h 44 v 22 z" id="path174" inkscape:connector-curvature="0" style="fill:none;stroke-width:1" />
    <path d="M 2,24 V 2 h 44 v 22 z" id="path176" inkscape:connector-curvature="0" style="fill:none;stroke-width:1" />
  </g>
</svg>
