<?xml version="1.0" encoding="UTF-8" standalone="no"?>
<!-- Created with Inkscape (http://www.inkscape.org/) -->

<svg xmlns:osb="http://www.openswatchbook.org/uri/2009/osb"
  xmlns:dc="http://purl.org/dc/elements/1.1/"
  xmlns:cc="http://creativecommons.org/ns#"
  xmlns:rdf="http://www.w3.org/1999/02/22-rdf-syntax-ns#"
  xmlns:svg="http://www.w3.org/2000/svg"
  xmlns="http://www.w3.org/2000/svg"
  xmlns:xlink="http://www.w3.org/1999/xlink"
  xmlns:sodipodi="http://sodipodi.sourceforge.net/DTD/sodipodi-0.dtd"
  xmlns:inkscape="http://www.inkscape.org/namespaces/inkscape" width="480mm" height="480mm" viewBox="0 0 480 480" version="1.1" id="svg8" inkscape:version="0.92.3 (2405546, 2018-03-11)" sodipodi:docname="source.svg">
  <defs id="defs2">
    <linearGradient inkscape:collect="always" id="linearGradient959" osb:paint="gradient">
      <stop style="stop-color:#000000;stop-opacity:1;" offset="0" id="stop955" />
      <stop style="stop-color:#000000;stop-opacity:0;" offset="1" id="stop957" />
    </linearGradient>
    <linearGradient id="color-1" gradientUnits="userSpaceOnUse" y2="59.996441" x2="62.355228" y1="6.2039299" x1="6.9949198">
      <stop id="stop2" stop-opacity="0.36" stop-color="#000000" offset="0" />
      <stop id="stop4" stop-opacity="0" stop-color="#000000" offset="1" />
    </linearGradient>
    <filter id="dropshadow-base">
      <feColorMatrix id="feColorMatrix7" values="0 0 0 0 0  0 0 0 0 0  0 0 0 0 0  0 0 0 .8 0" type="matrix" />
      <feOffset id="feOffset9" dy="1" dx="0" />
      <feGaussianBlur result="result1" id="feGaussianBlur11" stdDeviation="1" />
      <feComposite id="feComposite13" in2="result1" in="SourceGraphic" />
    </filter>
    <filter height="1.3" width="1.2" y="-0.1" x="-0.1" id="dropshadow-banner">
      <feColorMatrix id="feColorMatrix16" values="0 0 0 0 0  0 0 0 0 0  0 0 0 0 0  0 0 0 .4 0" type="matrix" />
      <feOffset id="feOffset18" dy="1" dx="0" />
      <feGaussianBlur result="result1" id="feGaussianBlur20" stdDeviation="0.5" />
      <feComposite id="feComposite22" in2="result1" in="SourceGraphic" />
    </filter>
    <linearGradient inkscape:collect="always" xlink:href="#linearGradient959" id="linearGradient963" gradientUnits="userSpaceOnUse" x1="52.889958" y1="57" x2="427.11004" y2="57" />
    <linearGradient inkscape:collect="always" xlink:href="#linearGradient959" id="linearGradient1033" gradientUnits="userSpaceOnUse" gradientTransform="translate(1.5425103,1.5936709)" x1="52.889957" y1="57" x2="427.11005" y2="57" />
    <filter inkscape:collect="always" style="color-interpolation-filters:sRGB" id="filter1052" x="-0.048" width="1.096" y="-0.048" height="1.096">
      <feGaussianBlur inkscape:collect="always" stdDeviation="0.88" id="feGaussianBlur1054" />
    </filter>
    <filter inkscape:collect="always" style="color-interpolation-filters:sRGB" id="filter1072" x="-0.0058478126" width="1.0116956" y="-0.0093656053" height="1.0187312">
      <feGaussianBlur inkscape:collect="always" stdDeviation="0.91182038" id="feGaussianBlur1074" />
    </filter>
  </defs>
  <sodipodi:namedview id="base" pagecolor="#ffffff" bordercolor="#666666" borderopacity="1.0" inkscape:pageopacity="0" inkscape:pageshadow="2" inkscape:zoom="0.45254834" inkscape:cx="1198.8161" inkscape:cy="1006.23" inkscape:document-units="mm" inkscape:current-layer="layer1" showgrid="false" inkscape:pagecheckerboard="true" inkscape:window-width="1920" inkscape:window-height="1014" inkscape:window-x="0" inkscape:window-y="0" inkscape:window-maximized="1" />
  <metadata id="metadata5">
    <rdf:RDF>
      <cc:Work rdf:about="">
        <dc:format>image/svg+xml</dc:format>
        <dc:type rdf:resource="http://purl.org/dc/dcmitype/StillImage" />
        <dc:title></dc:title>
      </cc:Work>
    </rdf:RDF>
  </metadata>
  <g inkscape:groupmode="layer" id="layer2" inkscape:label="BG">
    <rect style="opacity:0.9;fill:#607d8b;fill-opacity:1;stroke:none;stroke-width:0.26458332" id="rect949" width="479.99936" height="481.75333" x="0.00032043457" y="-0.87666321" ry="1.0000006" />
  </g>
  <g inkscape:label="Layer 1" inkscape:groupmode="layer" id="layer1" transform="translate(0,183)">
    <g transform="matrix(11.363636,0,0,11.363636,-32.727266,-215.72727)" id="g178" style="font-family:none;opacity:0.95;mix-blend-mode:normal;fill:none;fill-rule:nonzero;stroke:none;stroke-linecap:butt;stroke-linejoin:miter;stroke-miterlimit:10;stroke-dasharray:none;stroke-dashoffset:0;filter:url(#filter1052)" text-anchor="none" font-size="none" font-weight="none" stroke-miterlimit="10" stroke-width="none">
      <path style="fill:#607d8b;stroke-width:1" inkscape:connector-curvature="0" id="base 1 33" d="M 7,43 C 5.89543,43 5,42.10457 5,41 V 7 C 5,5.89543 5.89543,5 7,5 h 34 c 1.10457,0 2,0.89543 2,2 v 34 c 0,1.10457 -0.89543,2 -2,2 z" />
      <path style="fill:url(#color-1);stroke-width:1" inkscape:connector-curvature="0" id="path28" d="M 10.28556,38.78323 V 26.56811 L 6.99492,23.27747 24.06847,6.20392 43,25.13545 v 15.86454 c 0,1.10457 -0.89543,2 -2,2 H 14.50233 Z m 27.56583,0 v -3.93581 l -3.93581,3.93581 z" />
      <path style="fill:none;stroke-width:0" inkscape:connector-curvature="0" id="rect840 1 1" d="M 24.06847,6.20393 41.14202,23.27748 H 37.85138 V 38.78323 H 10.28556 V 23.27748 H 6.99492 Z" />
      <g id="svg1137 9">
        <g id="layer1 1">
          <g id="g1692 1">
            <path style="fill:#424242;stroke-width:0.18086" inkscape:connector-curvature="0" id="rect840 1" d="m 13.73131,22.49358 h 20.63142 c 0.02327,0 0.042,0.02173 0.042,0.04873 v 12.7587 c 0,0.027 -0.01873,0.04873 -0.042,0.04873 H 13.73131 c -0.02327,0 -0.042,-0.02174 -0.042,-0.04873 v -12.7587 c 0,-0.027 0.01873,-0.04873 0.042,-0.04873 z" />
            <path style="fill:#e0e0e0;stroke-width:24.54369926" inkscape:connector-curvature="0" id="path842 1" d="m 34.40564,35.33755 c -10e-6,-2.45848 -6e-5,-12.84397 -6e-5,-12.84397 H 26.4392 v 6.20914 h -0.94829 v -6.20914 h -5.97422 v 0.94829 c 0,0 0.79939,0.39259 0.94829,0.94829 h -2.08624 c 0.14227,-0.53097 0.94829,-0.94829 0.94829,-0.94829 v -0.94829 h -5.59572 v 6.20914 h 20.67427 l 3e-5,0.77614 H 22.64604 v 5.85871 h -0.94829 c -0.15805,0 0.15805,-5.85871 0,-5.85871 h -7.96641 l -3e-5,5.85871 M 24.06847,6.20393 41.14202,23.27748 H 37.85138 V 38.78323 H 10.28556 V 23.27748 H 6.99492 Z" />
          </g>
          <g style="font-weight:400;font-size:14px;font-family:Roboto, sans-serif;text-anchor:start;fill:#000000;stroke-width:1" font-size="14" font-weight="400" id="layer2 1" />
        </g>
      </g>
      <path style="fill:none;stroke-width:1" inkscape:connector-curvature="0" id="base 1 29 1" d="M 2,24 C 2,11.84974 11.84974,2 24,2 36.15026,2 46,11.84974 46,24 46,36.15026 36.15026,46 24,46 11.84974,46 2,36.15026 2,24 Z" />
      <path style="fill:none;stroke-width:1" inkscape:connector-curvature="0" id="base 1 25 1" d="M 2,24 C 2,11.84974 11.84974,2 24,2 36.15026,2 46,11.84974 46,24 46,36.15026 36.15026,46 24,46 11.84974,46 2,36.15026 2,24 Z" />
      <path style="fill:none;stroke-width:1" inkscape:connector-curvature="0" id="base 1 21 1" d="M 2,24 C 2,11.84974 11.84974,2 24,2 36.15026,2 46,11.84974 46,24 46,36.15026 36.15026,46 24,46 11.84974,46 2,36.15026 2,24 Z" />
      <path style="fill:none;stroke-width:1" inkscape:connector-curvature="0" id="base 1 17 1" d="M 2,24 C 2,11.84974 11.84974,2 24,2 36.15026,2 46,11.84974 46,24 46,36.15026 36.15026,46 24,46 11.84974,46 2,36.15026 2,24 Z" />
      <path style="fill:none;stroke-width:1" inkscape:connector-curvature="0" id="base 1 13 1" d="M 2,24 C 2,11.84974 11.84974,2 24,2 36.15026,2 46,11.84974 46,24 46,36.15026 36.15026,46 24,46 11.84974,46 2,36.15026 2,24 Z" />
      <path style="fill:none;stroke-width:1" inkscape:connector-curvature="0" id="base 1 9 1" d="M 2,24 C 2,11.84974 11.84974,2 24,2 36.15026,2 46,11.84974 46,24 46,36.15026 36.15026,46 24,46 11.84974,46 2,36.15026 2,24 Z" />
      <path style="fill:none;stroke-width:1" inkscape:connector-curvature="0" id="base 1 5 1" d="M 2,24 C 2,11.84974 11.84974,2 24,2 36.15026,2 46,11.84974 46,24 46,36.15026 36.15026,46 24,46 11.84974,46 2,36.15026 2,24 Z" />
      <path style="fill:none;stroke-width:1" inkscape:connector-curvature="0" id="base 1 1 1" d="M 2,24 C 2,11.84974 11.84974,2 24,2 36.15026,2 46,11.84974 46,24 46,36.15026 36.15026,46 24,46 11.84974,46 2,36.15026 2,24 Z" />
      <g style="font-weight:400;font-size:14px;font-family:Roboto, sans-serif;text-anchor:start;fill:#000000;stroke-width:1" font-size="14" font-weight="400" id="svg1137 1 1">
        <g id="layer1 1 1">
          <g id="g1692 1 1" />
          <g id="layer2 1 1" />
        </g>
      </g>
      <rect style="fill:none;stroke-width:1" id="rect49" height="22" width="44" y="2" x="2" />
      <path style="fill:none;stroke-width:1" inkscape:connector-curvature="0" id="path51" d="M 2,24 V 2 h 44 v 22 z" />
      <path style="fill:none;stroke-width:1" inkscape:connector-curvature="0" id="path53" d="M 2,24 V 2 h 44 v 22 z" />
      <path style="fill:none;stroke-width:1" inkscape:connector-curvature="0" id="path55" d="M 2,24 V 2 h 44 v 22 z" />
      <path style="fill:none;stroke-width:1" inkscape:connector-curvature="0" id="path57" d="M 2,24 V 2 h 44 v 22 z" />
      <g style="font-weight:400;font-size:14px;font-family:Roboto, sans-serif;text-anchor:start;fill:#000000;stroke-width:1" font-size="14" font-weight="400" id="svg1137 2 1">
        <g id="g63">
          <g id="g59" />
          <g id="g61" />
        </g>
      </g>
      <rect style="fill:none;stroke-width:1" id="rect66" height="22" width="44" y="2" x="2" />
      <path style="fill:none;stroke-width:1" inkscape:connector-curvature="0" id="path68" d="M 2,24 V 2 h 44 v 22 z" />
      <path style="fill:none;stroke-width:1" inkscape:connector-curvature="0" id="path70" d="M 2,24 V 2 h 44 v 22 z" />
      <path style="fill:none;stroke-width:1" inkscape:connector-curvature="0" id="path72" d="M 2,24 V 2 h 44 v 22 z" />
      <path style="fill:none;stroke-width:1" inkscape:connector-curvature="0" id="path74" d="M 2,24 V 2 h 44 v 22 z" />
      <g style="font-weight:400;font-size:14px;font-family:Roboto, sans-serif;text-anchor:start;fill:#000000;stroke-width:1" font-size="14" font-weight="400" id="svg1137 3 1">
        <g id="g80">
          <g id="g76" />
          <g id="g78" />
        </g>
      </g>
      <rect style="fill:none;stroke-width:1" id="rect83" height="22" width="44" y="2" x="2" />
      <path style="fill:none;stroke-width:1" inkscape:connector-curvature="0" id="path85" d="M 2,24 V 2 h 44 v 22 z" />
      <path style="fill:none;stroke-width:1" inkscape:connector-curvature="0" id="path87" d="M 2,24 V 2 h 44 v 22 z" />
      <path style="fill:none;stroke-width:1" inkscape:connector-curvature="0" id="path89" d="M 2,24 V 2 h 44 v 22 z" />
      <path style="fill:none;stroke-width:1" inkscape:connector-curvature="0" id="path91" d="M 2,24 V 2 h 44 v 22 z" />
      <g style="font-weight:400;font-size:14px;font-family:Roboto, sans-serif;text-anchor:start;fill:#000000;stroke-width:1" font-size="14" font-weight="400" id="svg1137 4 1">
        <g id="g97">
          <g id="g93" />
          <g id="g95" />
        </g>
      </g>
      <rect style="fill:none;stroke-width:1" id="rect100" height="22" width="44" y="2" x="2" />
      <path style="fill:none;stroke-width:1" inkscape:connector-curvature="0" id="path102" d="M 2,24 V 2 h 44 v 22 z" />
      <path style="fill:none;stroke-width:1" inkscape:connector-curvature="0" id="path104" d="M 2,24 V 2 h 44 v 22 z" />
      <path style="fill:none;stroke-width:1" inkscape:connector-curvature="0" id="path106" d="M 2,24 V 2 h 44 v 22 z" />
      <path style="fill:none;stroke-width:1" inkscape:connector-curvature="0" id="path108" d="M 2,24 V 2 h 44 v 22 z" />
      <g style="font-weight:400;font-size:14px;font-family:Roboto, sans-serif;text-anchor:start;fill:#000000;stroke-width:1" font-size="14" font-weight="400" id="svg1137 5 1">
        <g id="g114">
          <g id="g110" />
          <g id="g112" />
        </g>
      </g>
      <rect style="fill:none;stroke-width:1" id="rect117" height="22" width="44" y="2" x="2" />
      <path style="fill:none;stroke-width:1" inkscape:connector-curvature="0" id="path119" d="M 2,24 V 2 h 44 v 22 z" />
      <path style="fill:none;stroke-width:1" inkscape:connector-curvature="0" id="path121" d="M 2,24 V 2 h 44 v 22 z" />
      <path style="fill:none;stroke-width:1" inkscape:connector-curvature="0" id="path123" d="M 2,24 V 2 h 44 v 22 z" />
      <path style="fill:none;stroke-width:1" inkscape:connector-curvature="0" id="path125" d="M 2,24 V 2 h 44 v 22 z" />
      <g style="font-weight:400;font-size:14px;font-family:Roboto, sans-serif;text-anchor:start;fill:#000000;stroke-width:1" font-size="14" font-weight="400" id="svg1137 6 1">
        <g id="g131">
          <g id="g127" />
          <g id="g129" />
        </g>
      </g>
      <rect style="fill:none;stroke-width:1" id="rect134" height="22" width="44" y="2" x="2" />
      <path style="fill:none;stroke-width:1" inkscape:connector-curvature="0" id="path136" d="M 2,24 V 2 h 44 v 22 z" />
      <path style="fill:none;stroke-width:1" inkscape:connector-curvature="0" id="path138" d="M 2,24 V 2 h 44 v 22 z" />
      <path style="fill:none;stroke-width:1" inkscape:connector-curvature="0" id="path140" d="M 2,24 V 2 h 44 v 22 z" />
      <path style="fill:none;stroke-width:1" inkscape:connector-curvature="0" id="path142" d="M 2,24 V 2 h 44 v 22 z" />
      <g style="font-weight:400;font-size:14px;font-family:Roboto, sans-serif;text-anchor:start;fill:#000000;stroke-width:1" font-size="14" font-weight="400" id="svg1137 7 1">
        <g id="g148">
          <g id="g144" />
          <g id="g146" />
        </g>
      </g>
      <rect style="fill:none;stroke-width:1" id="rect151" height="22" width="44" y="2" x="2" />
      <path style="fill:none;stroke-width:1" inkscape:connector-curvature="0" id="path153" d="M 2,24 V 2 h 44 v 22 z" />
      <path style="fill:none;stroke-width:1" inkscape:connector-curvature="0" id="path155" d="M 2,24 V 2 h 44 v 22 z" />
      <path style="fill:none;stroke-width:1" inkscape:connector-curvature="0" id="path157" d="M 2,24 V 2 h 44 v 22 z" />
      <path style="fill:none;stroke-width:1" inkscape:connector-curvature="0" id="path159" d="M 2,24 V 2 h 44 v 22 z" />
      <g style="font-weight:400;font-size:14px;font-family:Roboto, sans-serif;text-anchor:start;fill:#000000;stroke-width:1" font-size="14" font-weight="400" id="svg1137 8 1">
        <g id="g165">
          <g id="g161" />
          <g id="g163" />
        </g>
      </g>
      <rect style="fill:none;stroke-width:1" id="rect168" height="22" width="44" y="2" x="2" />
      <path style="fill:none;stroke-width:1" inkscape:connector-curvature="0" id="path170" d="M 2,24 V 2 h 44 v 22 z" />
      <path style="fill:none;stroke-width:1" inkscape:connector-curvature="0" id="path172" d="M 2,24 V 2 h 44 v 22 z" />
      <path style="fill:none;stroke-width:1" inkscape:connector-curvature="0" id="path174" d="M 2,24 V 2 h 44 v 22 z" />
      <path style="fill:none;stroke-width:1" inkscape:connector-curvature="0" id="path176" d="M 2,24 V 2 h 44 v 22 z" />
    </g>
    <flowRoot xml:space="preserve" id="flowRoot921" style="fill:black;fill-opacity:1;stroke:none;font-family:sans-serif;font-style:normal;font-weight:normal;font-size:40px;line-height:1.25;letter-spacing:0px;word-spacing:0px">
      <flowRegion id="flowRegion923">
        <rect id="rect925" width="399.95728" height="190.03494" x="377.8602" y="643.02765" />
      </flowRegion>
      <flowPara id="flowPara927"></flowPara>
    </flowRoot>
    <text xml:space="preserve" style="font-style:normal;font-weight:normal;font-size:10.58333302px;line-height:1.25;font-family:sans-serif;letter-spacing:0px;word-spacing:0px;fill:#292929;fill-opacity:1;stroke:url(#linearGradient1033);stroke-width:0.69999999;stroke-miterlimit:4;stroke-dasharray:none;stroke-dashoffset:0;filter:url(#filter1072)" x="240.59163" y="5.2636065" id="text2071-7">
      <tspan sodipodi:role="line" x="240.59163" y="5.2636065" style="font-style:normal;font-variant:normal;font-weight:normal;font-stretch:normal;font-size:84.66667175px;line-height:1;font-family:Roboto;-inkscape-font-specification:Roboto;text-align:center;text-anchor:middle;fill:#292929;fill-opacity:1;stroke:url(#linearGradient1033);stroke-width:0.69999999;stroke-miterlimit:4;stroke-dasharray:none;stroke-dashoffset:0;stroke-opacity:1;" id="tspan2077-5">Click Here</tspan>
      <tspan sodipodi:role="line" x="240.59163" y="89.930275" style="font-style:normal;font-variant:normal;font-weight:normal;font-stretch:normal;font-size:84.66667175px;line-height:1;font-family:Roboto;-inkscape-font-specification:Roboto;text-align:center;text-anchor:middle;fill:#292929;fill-opacity:1;stroke:url(#linearGradient1033);stroke-width:0.69999999;stroke-miterlimit:4;stroke-dasharray:none;stroke-dashoffset:0;stroke-opacity:1;" id="tspan2083-3">to Select</tspan>
      <tspan sodipodi:role="line" x="240.59163" y="174.59695" style="font-style:normal;font-variant:normal;font-weight:normal;font-stretch:normal;font-size:84.66667175px;line-height:1;font-family:Roboto;-inkscape-font-specification:Roboto;text-align:center;text-anchor:middle;fill:#292929;fill-opacity:1;stroke:url(#linearGradient1033);stroke-width:0.69999999;stroke-miterlimit:4;stroke-dasharray:none;stroke-dashoffset:0;stroke-opacity:1;" id="tspan2081-5">Source</tspan>
    </text>
  </g>
  <g inkscape:groupmode="layer" id="layer3" inkscape:label="Layer 2">
    <text transform="translate(0,183)" xml:space="preserve" style="font-style:normal;font-weight:normal;font-size:10.58333302px;line-height:1.25;font-family:sans-serif;letter-spacing:0px;word-spacing:0px;fill:#000000;fill-opacity:1;stroke:url(#linearGradient963);stroke-width:0.7;stroke-miterlimit:4;stroke-dasharray:none;stroke-dashoffset:0" x="239.04915" y="3.6699188" id="text2071">
      <tspan sodipodi:role="line" x="239.04915" y="3.6699188" style="font-style:normal;font-variant:normal;font-weight:normal;font-stretch:normal;font-size:84.66667175px;line-height:1;font-family:Roboto;-inkscape-font-specification:Roboto;text-align:center;text-anchor:middle;fill:#fafafa;fill-opacity:1;stroke-width:0.7;stroke:none;stroke-opacity:1;stroke-miterlimit:4;stroke-dasharray:none;stroke-dashoffset:0" id="tspan2077">Click Here</tspan>
      <tspan sodipodi:role="line" x="239.04915" y="88.336594" style="font-style:normal;font-variant:normal;font-weight:normal;font-stretch:normal;font-size:84.66667175px;line-height:1;font-family:Roboto;-inkscape-font-specification:Roboto;text-align:center;text-anchor:middle;fill:#fafafa;fill-opacity:1;stroke-width:0.7;stroke:none;stroke-opacity:1;stroke-miterlimit:4;stroke-dasharray:none;stroke-dashoffset:0" id="tspan2083">to Select</tspan>
      <tspan sodipodi:role="line" x="239.04915" y="173.00325" style="font-style:normal;font-variant:normal;font-weight:normal;font-stretch:normal;font-size:84.66667175px;line-height:1;font-family:Roboto;-inkscape-font-specification:Roboto;text-align:center;text-anchor:middle;fill:#fafafa;fill-opacity:1;stroke-width:0.7;stroke:none;stroke-opacity:1;stroke-miterlimit:4;stroke-dasharray:none;stroke-dashoffset:0" id="tspan2081">Source</tspan>
    </text>
  </g>
</svg>
