<svg xmlns="http://www.w3.org/2000/svg" xmlns:svg="http://www.w3.org/2000/svg" id="svg1137" width="500mm" height="500mm" version="1.1" viewBox="0 0 500 500"><metadata id="metadata1134"/><g id="layer1" transform="translate(0,203)"><g id="g1692" transform="translate(225.80952,20.630958)"><path id="path842" fill="#e0e0e0" fill-opacity="1" stroke-width="24.544" d="m 171.45297,209.34328 c -1.5e-4,-35.02329 -8.9e-4,-182.974241 -8.9e-4,-182.974241 H 57.963601 V 114.82404 H 44.454353 V 26.369039 H -40.6539 v 13.509248 c 0,0 11.388036,5.592777 13.509247,13.509247 H -56.864997 C -54.838192,45.823395 -43.35575,39.878287 -43.35575,39.878287 V 26.369039 H -123.072 v 88.455001 h 294.52408 l 4.5e-4,11.05688 H 3.9266139 v 83.46276 H -9.5826326 c -2.2515404,0 2.2515408,-83.46276 0,-83.46276 H -123.07156 l -4.4e-4,83.46276 M 24.190484,-205.69207 267.41895,37.536403 H 220.54078 V 258.43015 H -172.1598 V 37.536403 h -46.87819 z"/></g></g></svg>