<svg xmlns="http://www.w3.org/2000/svg" xmlns:svg="http://www.w3.org/2000/svg" id="svg180" width="480" height="480" version="1.1"><metadata id="metadata184"/><defs id="defs25"><linearGradient id="color-1" x1="7.063" x2="62.424" y1="5.588" y2="59.38" gradientUnits="userSpaceOnUse"><stop id="stop2" offset="0" stop-color="#000" stop-opacity=".36"/><stop id="stop4" offset="1" stop-color="#000" stop-opacity="0"/></linearGradient><filter id="dropshadow-base"><feColorMatrix id="feColorMatrix7" type="matrix" values="0 0 0 0 0 0 0 0 0 0 0 0 0 0 0 0 0 0 .8 0"/><feOffset id="feOffset9" dx="0" dy="1"/><feGaussianBlur id="feGaussianBlur11" result="result1" stdDeviation="1"/><feComposite id="feComposite13" in="SourceGraphic" in2="result1"/></filter><filter id="dropshadow-banner" width="1.2" height="1.3" x="-.1" y="-.1"><feColorMatrix id="feColorMatrix16" type="matrix" values="0 0 0 0 0 0 0 0 0 0 0 0 0 0 0 0 0 0 .4 0"/><feOffset id="feOffset18" dx="0" dy="1"/><feGaussianBlur id="feGaussianBlur20" result="result1" stdDeviation=".5"/><feComposite id="feComposite22" in="SourceGraphic" in2="result1"/></filter></defs><g id="g178" fill="none" fill-rule="nonzero" stroke="none" stroke-dasharray="none" stroke-dashoffset="0" stroke-linecap="butt" stroke-linejoin="miter" stroke-miterlimit="10" stroke-width="none" font-family="none" font-size="none" font-weight="none" text-anchor="none" transform="matrix(10.681818,0,0,10.681818,-16.363632,-16.363632)" style="mix-blend-mode:normal"><path id="base 1 33" fill="#607d8b" stroke-width="1" d="M 2,24 C 2,11.84974 11.84974,2 24,2 36.15026,2 46,11.84974 46,24 46,36.15026 36.15026,46 24,46 11.84974,46 2,36.15026 2,24 Z"/><path id="path28" fill="url(#color-1)" stroke-width="1" d="M 10.35403,38.16697 V 25.95185 L 7.06339,22.66121 24.13694,5.58766 45.76644,27.21716 C 44.20955,37.8424 35.05743,45.99999 23.99999,45.99999 c -2.41941,0 -4.7476,-0.39054 -6.92497,-1.11203 z m 27.56583,0 v -3.93581 l -3.93581,3.93581 z"/><path id="rect840 1 1" fill="none" stroke-width="0" d="M 24.13695,5.58767 41.2105,22.66122 H 37.91986 V 38.16697 H 10.35404 V 22.66122 H 7.0634 Z"/><g id="svg1137 9"><g id="layer1 1"><g id="g1692 1"><path id="rect840 1" fill="#424242" stroke-width=".181" d="M 13.79978,21.87732 H 34.4312 c 0.02327,0 0.042,0.02173 0.042,0.04873 v 12.7587 c 0,0.027 -0.01873,0.04873 -0.042,0.04873 H 13.79978 c -0.02327,0 -0.042,-0.02174 -0.042,-0.04873 v -12.7587 c 0,-0.027 0.01873,-0.04873 0.042,-0.04873 z"/><path id="path842 1" fill="#e0e0e0" stroke-width="24.544" d="m 34.47411,34.72129 c -1e-5,-2.45848 -6e-5,-12.84397 -6e-5,-12.84397 h -7.96638 v 6.20914 h -0.94829 v -6.20914 h -5.97422 v 0.94829 c 0,0 0.79939,0.39259 0.94829,0.94829 h -2.08624 c 0.14227,-0.53097 0.94829,-0.94829 0.94829,-0.94829 v -0.94829 h -5.59572 v 6.20914 h 20.67427 l 3e-5,0.77614 H 22.71451 v 5.85871 h -0.94829 c -0.15805,0 0.15805,-5.85871 0,-5.85871 h -7.96641 l -3e-5,5.85871 M 24.13695,5.58767 41.2105,22.66122 H 37.91986 V 38.16697 H 10.35404 V 22.66122 H 7.0634 Z"/></g></g></g><path id="base 1 29 1" fill="none" stroke-width="1" d="M 2,24 C 2,11.84974 11.84974,2 24,2 36.15026,2 46,11.84974 46,24 46,36.15026 36.15026,46 24,46 11.84974,46 2,36.15026 2,24 Z"/><path id="base 1 25 1" fill="none" stroke-width="1" d="M 2,24 C 2,11.84974 11.84974,2 24,2 36.15026,2 46,11.84974 46,24 46,36.15026 36.15026,46 24,46 11.84974,46 2,36.15026 2,24 Z"/><path id="base 1 21 1" fill="none" stroke-width="1" d="M 2,24 C 2,11.84974 11.84974,2 24,2 36.15026,2 46,11.84974 46,24 46,36.15026 36.15026,46 24,46 11.84974,46 2,36.15026 2,24 Z"/><path id="base 1 17 1" fill="none" stroke-width="1" d="M 2,24 C 2,11.84974 11.84974,2 24,2 36.15026,2 46,11.84974 46,24 46,36.15026 36.15026,46 24,46 11.84974,46 2,36.15026 2,24 Z"/><path id="base 1 13 1" fill="none" stroke-width="1" d="M 2,24 C 2,11.84974 11.84974,2 24,2 36.15026,2 46,11.84974 46,24 46,36.15026 36.15026,46 24,46 11.84974,46 2,36.15026 2,24 Z"/><path id="base 1 9 1" fill="none" stroke-width="1" d="M 2,24 C 2,11.84974 11.84974,2 24,2 36.15026,2 46,11.84974 46,24 46,36.15026 36.15026,46 24,46 11.84974,46 2,36.15026 2,24 Z"/><path id="base 1 5 1" fill="none" stroke-width="1" d="M 2,24 C 2,11.84974 11.84974,2 24,2 36.15026,2 46,11.84974 46,24 46,36.15026 36.15026,46 24,46 11.84974,46 2,36.15026 2,24 Z"/><path id="base 1 1 1" fill="none" stroke-width="1" d="M 2,24 C 2,11.84974 11.84974,2 24,2 36.15026,2 46,11.84974 46,24 46,36.15026 36.15026,46 24,46 11.84974,46 2,36.15026 2,24 Z"/><rect id="rect49" width="44" height="22" x="2" y="2" fill="none" stroke-width="1"/><path id="path51" fill="none" stroke-width="1" d="M 2,24 V 2 h 44 v 22 z"/><path id="path53" fill="none" stroke-width="1" d="M 2,24 V 2 h 44 v 22 z"/><path id="path55" fill="none" stroke-width="1" d="M 2,24 V 2 h 44 v 22 z"/><path id="path57" fill="none" stroke-width="1" d="M 2,24 V 2 h 44 v 22 z"/><rect id="rect66" width="44" height="22" x="2" y="2" fill="none" stroke-width="1"/><path id="path68" fill="none" stroke-width="1" d="M 2,24 V 2 h 44 v 22 z"/><path id="path70" fill="none" stroke-width="1" d="M 2,24 V 2 h 44 v 22 z"/><path id="path72" fill="none" stroke-width="1" d="M 2,24 V 2 h 44 v 22 z"/><path id="path74" fill="none" stroke-width="1" d="M 2,24 V 2 h 44 v 22 z"/><rect id="rect83" width="44" height="22" x="2" y="2" fill="none" stroke-width="1"/><path id="path85" fill="none" stroke-width="1" d="M 2,24 V 2 h 44 v 22 z"/><path id="path87" fill="none" stroke-width="1" d="M 2,24 V 2 h 44 v 22 z"/><path id="path89" fill="none" stroke-width="1" d="M 2,24 V 2 h 44 v 22 z"/><path id="path91" fill="none" stroke-width="1" d="M 2,24 V 2 h 44 v 22 z"/><rect id="rect100" width="44" height="22" x="2" y="2" fill="none" stroke-width="1"/><path id="path102" fill="none" stroke-width="1" d="M 2,24 V 2 h 44 v 22 z"/><path id="path104" fill="none" stroke-width="1" d="M 2,24 V 2 h 44 v 22 z"/><path id="path106" fill="none" stroke-width="1" d="M 2,24 V 2 h 44 v 22 z"/><path id="path108" fill="none" stroke-width="1" d="M 2,24 V 2 h 44 v 22 z"/><rect id="rect117" width="44" height="22" x="2" y="2" fill="none" stroke-width="1"/><path id="path119" fill="none" stroke-width="1" d="M 2,24 V 2 h 44 v 22 z"/><path id="path121" fill="none" stroke-width="1" d="M 2,24 V 2 h 44 v 22 z"/><path id="path123" fill="none" stroke-width="1" d="M 2,24 V 2 h 44 v 22 z"/><path id="path125" fill="none" stroke-width="1" d="M 2,24 V 2 h 44 v 22 z"/><rect id="rect134" width="44" height="22" x="2" y="2" fill="none" stroke-width="1"/><path id="path136" fill="none" stroke-width="1" d="M 2,24 V 2 h 44 v 22 z"/><path id="path138" fill="none" stroke-width="1" d="M 2,24 V 2 h 44 v 22 z"/><path id="path140" fill="none" stroke-width="1" d="M 2,24 V 2 h 44 v 22 z"/><path id="path142" fill="none" stroke-width="1" d="M 2,24 V 2 h 44 v 22 z"/><rect id="rect151" width="44" height="22" x="2" y="2" fill="none" stroke-width="1"/><path id="path153" fill="none" stroke-width="1" d="M 2,24 V 2 h 44 v 22 z"/><path id="path155" fill="none" stroke-width="1" d="M 2,24 V 2 h 44 v 22 z"/><path id="path157" fill="none" stroke-width="1" d="M 2,24 V 2 h 44 v 22 z"/><path id="path159" fill="none" stroke-width="1" d="M 2,24 V 2 h 44 v 22 z"/><rect id="rect168" width="44" height="22" x="2" y="2" fill="none" stroke-width="1"/><path id="path170" fill="none" stroke-width="1" d="M 2,24 V 2 h 44 v 22 z"/><path id="path172" fill="none" stroke-width="1" d="M 2,24 V 2 h 44 v 22 z"/><path id="path174" fill="none" stroke-width="1" d="M 2,24 V 2 h 44 v 22 z"/><path id="path176" fill="none" stroke-width="1" d="M 2,24 V 2 h 44 v 22 z"/></g></svg>