<svg xmlns="http://www.w3.org/2000/svg" xmlns:svg="http://www.w3.org/2000/svg" id="svg180" width="480" height="480" version="1.1"><metadata id="metadata184"/><defs id="defs25"><linearGradient id="color-1" x1="6.995" x2="62.355" y1="6.204" y2="59.996" gradientUnits="userSpaceOnUse"><stop id="stop2" offset="0" stop-color="#000" stop-opacity=".36"/><stop id="stop4" offset="1" stop-color="#000" stop-opacity="0"/></linearGradient><filter id="dropshadow-base"><feColorMatrix id="feColorMatrix7" type="matrix" values="0 0 0 0 0 0 0 0 0 0 0 0 0 0 0 0 0 0 .8 0"/><feOffset id="feOffset9" dx="0" dy="1"/><feGaussianBlur id="feGaussianBlur11" result="result1" stdDeviation="1"/><feComposite id="feComposite13" in="SourceGraphic" in2="result1"/></filter><filter id="dropshadow-banner" width="1.2" height="1.3" x="-.1" y="-.1"><feColorMatrix id="feColorMatrix16" type="matrix" values="0 0 0 0 0 0 0 0 0 0 0 0 0 0 0 0 0 0 .4 0"/><feOffset id="feOffset18" dx="0" dy="1"/><feGaussianBlur id="feGaussianBlur20" result="result1" stdDeviation=".5"/><feComposite id="feComposite22" in="SourceGraphic" in2="result1"/></filter></defs><g id="g178" fill="none" fill-rule="nonzero" stroke="none" stroke-dasharray="none" stroke-dashoffset="0" stroke-linecap="butt" stroke-linejoin="miter" stroke-miterlimit="10" stroke-width="none" font-family="none" font-size="none" font-weight="none" text-anchor="none" transform="matrix(10.909091,0,0,10.909091,-21.818184,-21.818184)" style="mix-blend-mode:normal"><path id="base 1 33" fill="#607d8b" stroke-width="1" d="M 7,43 C 5.89543,43 5,42.10457 5,41 V 7 C 5,5.89543 5.89543,5 7,5 h 34 c 1.10457,0 2,0.89543 2,2 v 34 c 0,1.10457 -0.89543,2 -2,2 z"/><path id="path28" fill="url(#color-1)" stroke-width="1" d="M 10.28556,38.78323 V 26.56811 L 6.99492,23.27747 24.06847,6.20392 43,25.13545 v 15.86454 c 0,1.10457 -0.89543,2 -2,2 H 14.50233 Z m 27.56583,0 v -3.93581 l -3.93581,3.93581 z"/><path id="rect840 1 1" fill="none" stroke-width="0" d="M 24.06847,6.20393 41.14202,23.27748 H 37.85138 V 38.78323 H 10.28556 V 23.27748 H 6.99492 Z"/><g id="svg1137 9"><g id="layer1 1"><g id="g1692 1"><path id="rect840 1" fill="#424242" stroke-width=".181" d="m 13.73131,22.49358 h 20.63142 c 0.02327,0 0.042,0.02173 0.042,0.04873 v 12.7587 c 0,0.027 -0.01873,0.04873 -0.042,0.04873 H 13.73131 c -0.02327,0 -0.042,-0.02174 -0.042,-0.04873 v -12.7587 c 0,-0.027 0.01873,-0.04873 0.042,-0.04873 z"/><path id="path842 1" fill="#e0e0e0" stroke-width="24.544" d="m 34.40564,35.33755 c -10e-6,-2.45848 -6e-5,-12.84397 -6e-5,-12.84397 H 26.4392 v 6.20914 h -0.94829 v -6.20914 h -5.97422 v 0.94829 c 0,0 0.79939,0.39259 0.94829,0.94829 h -2.08624 c 0.14227,-0.53097 0.94829,-0.94829 0.94829,-0.94829 v -0.94829 h -5.59572 v 6.20914 h 20.67427 l 3e-5,0.77614 H 22.64604 v 5.85871 h -0.94829 c -0.15805,0 0.15805,-5.85871 0,-5.85871 h -7.96641 l -3e-5,5.85871 M 24.06847,6.20393 41.14202,23.27748 H 37.85138 V 38.78323 H 10.28556 V 23.27748 H 6.99492 Z"/></g></g></g><path id="base 1 29 1" fill="none" stroke-width="1" d="M 2,24 C 2,11.84974 11.84974,2 24,2 36.15026,2 46,11.84974 46,24 46,36.15026 36.15026,46 24,46 11.84974,46 2,36.15026 2,24 Z"/><path id="base 1 25 1" fill="none" stroke-width="1" d="M 2,24 C 2,11.84974 11.84974,2 24,2 36.15026,2 46,11.84974 46,24 46,36.15026 36.15026,46 24,46 11.84974,46 2,36.15026 2,24 Z"/><path id="base 1 21 1" fill="none" stroke-width="1" d="M 2,24 C 2,11.84974 11.84974,2 24,2 36.15026,2 46,11.84974 46,24 46,36.15026 36.15026,46 24,46 11.84974,46 2,36.15026 2,24 Z"/><path id="base 1 17 1" fill="none" stroke-width="1" d="M 2,24 C 2,11.84974 11.84974,2 24,2 36.15026,2 46,11.84974 46,24 46,36.15026 36.15026,46 24,46 11.84974,46 2,36.15026 2,24 Z"/><path id="base 1 13 1" fill="none" stroke-width="1" d="M 2,24 C 2,11.84974 11.84974,2 24,2 36.15026,2 46,11.84974 46,24 46,36.15026 36.15026,46 24,46 11.84974,46 2,36.15026 2,24 Z"/><path id="base 1 9 1" fill="none" stroke-width="1" d="M 2,24 C 2,11.84974 11.84974,2 24,2 36.15026,2 46,11.84974 46,24 46,36.15026 36.15026,46 24,46 11.84974,46 2,36.15026 2,24 Z"/><path id="base 1 5 1" fill="none" stroke-width="1" d="M 2,24 C 2,11.84974 11.84974,2 24,2 36.15026,2 46,11.84974 46,24 46,36.15026 36.15026,46 24,46 11.84974,46 2,36.15026 2,24 Z"/><path id="base 1 1 1" fill="none" stroke-width="1" d="M 2,24 C 2,11.84974 11.84974,2 24,2 36.15026,2 46,11.84974 46,24 46,36.15026 36.15026,46 24,46 11.84974,46 2,36.15026 2,24 Z"/><rect id="rect49" width="44" height="22" x="2" y="2" fill="none" stroke-width="1"/><path id="path51" fill="none" stroke-width="1" d="M 2,24 V 2 h 44 v 22 z"/><path id="path53" fill="none" stroke-width="1" d="M 2,24 V 2 h 44 v 22 z"/><path id="path55" fill="none" stroke-width="1" d="M 2,24 V 2 h 44 v 22 z"/><path id="path57" fill="none" stroke-width="1" d="M 2,24 V 2 h 44 v 22 z"/><rect id="rect66" width="44" height="22" x="2" y="2" fill="none" stroke-width="1"/><path id="path68" fill="none" stroke-width="1" d="M 2,24 V 2 h 44 v 22 z"/><path id="path70" fill="none" stroke-width="1" d="M 2,24 V 2 h 44 v 22 z"/><path id="path72" fill="none" stroke-width="1" d="M 2,24 V 2 h 44 v 22 z"/><path id="path74" fill="none" stroke-width="1" d="M 2,24 V 2 h 44 v 22 z"/><rect id="rect83" width="44" height="22" x="2" y="2" fill="none" stroke-width="1"/><path id="path85" fill="none" stroke-width="1" d="M 2,24 V 2 h 44 v 22 z"/><path id="path87" fill="none" stroke-width="1" d="M 2,24 V 2 h 44 v 22 z"/><path id="path89" fill="none" stroke-width="1" d="M 2,24 V 2 h 44 v 22 z"/><path id="path91" fill="none" stroke-width="1" d="M 2,24 V 2 h 44 v 22 z"/><rect id="rect100" width="44" height="22" x="2" y="2" fill="none" stroke-width="1"/><path id="path102" fill="none" stroke-width="1" d="M 2,24 V 2 h 44 v 22 z"/><path id="path104" fill="none" stroke-width="1" d="M 2,24 V 2 h 44 v 22 z"/><path id="path106" fill="none" stroke-width="1" d="M 2,24 V 2 h 44 v 22 z"/><path id="path108" fill="none" stroke-width="1" d="M 2,24 V 2 h 44 v 22 z"/><rect id="rect117" width="44" height="22" x="2" y="2" fill="none" stroke-width="1"/><path id="path119" fill="none" stroke-width="1" d="M 2,24 V 2 h 44 v 22 z"/><path id="path121" fill="none" stroke-width="1" d="M 2,24 V 2 h 44 v 22 z"/><path id="path123" fill="none" stroke-width="1" d="M 2,24 V 2 h 44 v 22 z"/><path id="path125" fill="none" stroke-width="1" d="M 2,24 V 2 h 44 v 22 z"/><rect id="rect134" width="44" height="22" x="2" y="2" fill="none" stroke-width="1"/><path id="path136" fill="none" stroke-width="1" d="M 2,24 V 2 h 44 v 22 z"/><path id="path138" fill="none" stroke-width="1" d="M 2,24 V 2 h 44 v 22 z"/><path id="path140" fill="none" stroke-width="1" d="M 2,24 V 2 h 44 v 22 z"/><path id="path142" fill="none" stroke-width="1" d="M 2,24 V 2 h 44 v 22 z"/><rect id="rect151" width="44" height="22" x="2" y="2" fill="none" stroke-width="1"/><path id="path153" fill="none" stroke-width="1" d="M 2,24 V 2 h 44 v 22 z"/><path id="path155" fill="none" stroke-width="1" d="M 2,24 V 2 h 44 v 22 z"/><path id="path157" fill="none" stroke-width="1" d="M 2,24 V 2 h 44 v 22 z"/><path id="path159" fill="none" stroke-width="1" d="M 2,24 V 2 h 44 v 22 z"/><rect id="rect168" width="44" height="22" x="2" y="2" fill="none" stroke-width="1"/><path id="path170" fill="none" stroke-width="1" d="M 2,24 V 2 h 44 v 22 z"/><path id="path172" fill="none" stroke-width="1" d="M 2,24 V 2 h 44 v 22 z"/><path id="path174" fill="none" stroke-width="1" d="M 2,24 V 2 h 44 v 22 z"/><path id="path176" fill="none" stroke-width="1" d="M 2,24 V 2 h 44 v 22 z"/></g></svg>