<svg xmlns="http://www.w3.org/2000/svg" xmlns:svg="http://www.w3.org/2000/svg" xmlns:xlink="http://www.w3.org/1999/xlink" id="svg21" width="2100" height="500" version="1.1" viewBox="0 0 2100 500"><metadata id="metadata25"/><title id="title2">logo</title><desc id="desc4">Created with Sketch.</desc><defs id="defs7"><path id="path-1" d="M 44.041379,343.22228 V 209.58016 H 9.2883553 v 0 c -5.154616,0 -9.33325782,-4.17864 -9.33325782,-9.33325 0,-2.44791 0.96171005,-4.79783 2.67789262,-6.54338 L 189.63862,3.497414 v 0 c 4.51726,-4.5945709 11.90386,-4.6572431 16.49843,-0.1399822 0.0404,0.039691 0.0805,0.079675 0.12024,0.1199491 l 97.60103,98.7938391 v -18.297357 0 c 0,-4.295513 3.4822,-7.777715 7.77771,-7.777715 h 32.41078 v 0 c 4.29551,0 7.77771,3.482202 7.77771,7.777715 v 67.137967 l 41.56811,42.6183 c 3.59911,3.69005 3.5254,9.59908 -0.16465,13.19819 -1.74316,1.70021 -4.08175,2.65184 -6.51677,2.65184 h -34.88669 v 133.64212 c 0,4.29552 -3.4822,7.77772 -7.77771,7.77772 H 51.819093 c -4.295513,0 -7.777714,-3.4822 -7.777714,-7.77772 z M 250.4341,179.96197 c 0.93644,-1.96383 1.46083,-4.16333 1.46083,-6.48575 0,-8.30819 -6.711,-15.04331 -14.98944,-15.04331 -8.27844,0 -14.98944,6.73512 -14.98944,15.04331 0,8.30819 6.711,15.04331 14.98944,15.04331 2.3141,0 4.50573,-0.52628 6.46253,-1.46608 l 21.51776,21.5951 v 20.91809 l -26.98099,27.07795 v -19.83957 c 5.82186,-2.06513 9.99296,-7.63737 9.99296,-14.18732 0,-8.30819 -6.711,-15.04331 -14.98944,-15.04331 -8.27844,0 -14.98944,6.73512 -14.98944,15.04331 0,6.54995 4.1711,12.12219 9.99296,14.18732 v 29.86845 l -24.9824,25.07218 V 144.46376 l 20.51847,-20.59221 c 1.95679,0.9398 4.14842,1.46608 6.46252,1.46608 8.27844,0 14.98944,-6.73512 14.98944,-15.04331 0,-8.30819 -6.711,-15.043312 -14.98944,-15.043312 -8.27844,0 -14.98944,6.735122 -14.98944,15.043312 0,2.32242 0.52439,4.52192 1.46083,6.48575 l -18.44886,18.51516 -18.44886,-18.51516 c 0.93644,-1.96383 1.46083,-4.16333 1.46083,-6.48575 0,-8.30819 -6.711,-15.043312 -14.98944,-15.043312 -8.27844,0 -14.98944,6.735122 -14.98944,15.043312 0,8.30819 6.711,15.04331 14.98944,15.04331 2.3141,0 4.50573,-0.52628 6.46252,-1.46608 l 20.51847,20.59221 v 105.16062 l -35.97465,-36.10394 v -28.86557 c 5.82186,-2.06512 9.99296,-7.63736 9.99296,-14.18731 0,-8.30819 -6.711,-15.04331 -14.98944,-15.04331 -8.27844,0 -14.98944,6.73512 -14.98944,15.04331 0,6.54995 4.1711,12.12219 9.99296,14.18731 v 18.8367 l -27.98029,-28.08085 v -27.86268 c 5.82186,-2.06512 9.99296,-7.63736 9.99296,-14.18731 0,-8.30819 -6.711,-15.04331 -14.98944,-15.04331 -8.27843,0 -14.989436,6.73512 -14.989436,15.04331 0,6.54995 4.171096,12.12219 9.992956,14.18731 v 32.01678 l 30.90716,31.01823 h -17.76994 c -2.05773,-5.84278 -7.61002,-10.02887 -14.13651,-10.02887 -8.278441,0 -14.989441,6.73512 -14.989441,15.04331 0,8.30819 6.711,15.04331 14.989441,15.04331 6.52649,0 12.07878,-4.18609 14.13651,-10.02888 h 27.7629 l 43.04074,43.19543 v 75.07401 l -22.98381,-23.06641 v -28.86557 c 5.82186,-2.06513 9.99296,-7.63736 9.99296,-14.18731 0,-8.3082 -6.711,-15.04331 -14.98944,-15.04331 -8.27843,0 -14.98943,6.73511 -14.98943,15.04331 0,6.54995 4.1711,12.12218 9.99296,14.18731 v 18.83669 l -33.4383,-33.55847 c 0.93644,-1.96383 1.46083,-4.16333 1.46083,-6.48575 0,-8.30819 -6.711,-15.04331 -14.98944,-15.04331 -8.27844,0 -14.989442,6.73512 -14.989442,15.04331 0,8.30819 6.711002,15.04331 14.989442,15.04331 2.3141,0 4.50572,-0.52627 6.46252,-1.46607 l 33.4383,33.55847 h -17.76994 c -2.05774,-5.84278 -7.61002,-10.02887 -14.13651,-10.02887 -8.27844,0 -14.98944,6.73511 -14.98944,15.04331 0,8.30819 6.711,15.04331 14.98944,15.04331 6.52649,0 12.07877,-4.18609 14.13651,-10.02888 h 27.7629 l 27.98028,28.08085 h 14.13218 l 28.97958,-29.08374 h 26.76361 c 2.05773,5.84279 7.61001,10.02888 14.13651,10.02888 8.27843,0 14.98943,-6.73512 14.98943,-15.04331 0,-8.30819 -6.711,-15.04331 -14.98943,-15.04331 -6.5265,0 -12.07878,4.18609 -14.13651,10.02887 H 229.8394 l -26.90997,27.00669 v -32.95274 l 32.04849,-32.16367 h 51.746 c 2.05773,5.84279 7.61001,10.02888 14.13651,10.02888 8.27844,0 14.98944,-6.73512 14.98944,-15.04331 0,-8.30819 -6.711,-15.04331 -14.98944,-15.04331 -6.5265,0 -12.07878,4.18609 -14.13651,10.02887 h -41.75304 l 29.90786,-30.01535 v -25.07218 l 21.51776,-21.5951 c 1.9568,0.9398 4.14842,1.46608 6.46252,1.46608 8.27844,0 14.98944,-6.73512 14.98944,-15.04331 0,-8.30819 -6.711,-15.04331 -14.98944,-15.04331 -8.27844,0 -14.98944,6.73512 -14.98944,15.04331 0,2.32242 0.52439,4.52192 1.46083,6.48575 l -14.45167,14.50361 v -45.91465 c 5.82186,-2.06513 9.99296,-7.63737 9.99296,-14.18732 0,-8.30819 -6.71101,-15.04331 -14.98944,-15.04331 -8.27844,0 -14.98944,6.73512 -14.98944,15.04331 0,6.54995 4.1711,12.12219 9.99296,14.18732 v 45.91465 z M 120.98717,323.90932 c -3.31138,0 -5.99578,-2.69405 -5.99578,-6.01732 0,-3.32328 2.6844,-6.01733 5.99578,-6.01733 3.31137,0 5.99577,2.69405 5.99577,6.01733 0,3.32327 -2.6844,6.01732 -5.99577,6.01732 z m 43.96901,-45.12993 c -3.31137,0 -5.99577,-2.69405 -5.99577,-6.01732 0,-3.32328 2.6844,-6.01733 5.99577,-6.01733 3.31138,0 5.99578,2.69405 5.99578,6.01733 0,3.32327 -2.6844,6.01732 -5.99578,6.01732 z m -51.96338,-7.02021 c -3.31138,0 -5.99578,-2.69405 -5.99578,-6.01733 0,-3.32327 2.6844,-6.01732 5.99578,-6.01732 3.31137,0 5.99577,2.69405 5.99577,6.01732 0,3.32328 -2.6844,6.01733 -5.99577,6.01733 z m -4.99648,-50.14437 c -3.31138,0 -5.99578,-2.69405 -5.99578,-6.01732 0,-3.32328 2.6844,-6.01733 5.99578,-6.01733 3.31137,0 5.99577,2.69405 5.99577,6.01733 0,3.32327 -2.6844,6.01732 -5.99577,6.01732 z m 124.91199,7.02021 c -3.31138,0 -5.99578,-2.69405 -5.99578,-6.01732 0,-3.32328 2.6844,-6.01732 5.99578,-6.01732 3.31137,0 5.99577,2.69404 5.99577,6.01732 0,3.32327 -2.6844,6.01732 -5.99577,6.01732 z m 67.95212,46.13282 c -3.31138,0 -5.99577,-2.69405 -5.99577,-6.01732 0,-3.32328 2.68439,-6.01733 5.99577,-6.01733 3.31138,0 5.99578,2.69405 5.99578,6.01733 0,3.32327 -2.6844,6.01732 -5.99578,6.01732 z m -25.98169,48.13859 c -3.31138,0 -5.99578,-2.69405 -5.99578,-6.01732 0,-3.32328 2.6844,-6.01733 5.99578,-6.01733 3.31137,0 5.99577,2.69405 5.99577,6.01733 0,3.32327 -2.6844,6.01732 -5.99577,6.01732 z m 27.98028,-143.41289 c -3.31137,0 -5.99577,-2.69404 -5.99577,-6.01732 0,-3.32328 2.6844,-6.01732 5.99577,-6.01732 3.31138,0 5.99578,2.69404 5.99578,6.01732 0,3.32328 -2.6844,6.01732 -5.99578,6.01732 z m -32.97676,-39.1126 c -3.31138,0 -5.99578,-2.69405 -5.99578,-6.01733 0,-3.32327 2.6844,-6.01732 5.99578,-6.01732 3.31137,0 5.99577,2.69405 5.99577,6.01732 0,3.32328 -2.6844,6.01733 -5.99577,6.01733 z m -39.97184,-24.0693 c -3.31138,0 -5.99578,-2.69405 -5.99578,-6.01732 0,-3.32328 2.6844,-6.01733 5.99578,-6.01733 3.31137,0 5.99578,2.69405 5.99578,6.01733 0,3.32327 -2.68441,6.01732 -5.99578,6.01732 z m -63.95494,0 c -3.31137,0 -5.99577,-2.69405 -5.99577,-6.01732 0,-3.32328 2.6844,-6.01733 5.99577,-6.01733 3.31138,0 5.99578,2.69405 5.99578,6.01733 0,3.32327 -2.6844,6.01732 -5.99578,6.01732 z m -51.96339,23.06641 c -3.31137,0 -5.99577,-2.69405 -5.99577,-6.01732 0,-3.32328 2.6844,-6.01733 5.99577,-6.01733 3.31138,0 5.99578,2.69405 5.99578,6.01733 0,3.32327 -2.6844,6.01732 -5.99578,6.01732 z m 37.97325,37.10683 c -3.31138,0 -5.99578,-2.69405 -5.99578,-6.01732 0,-3.32328 2.6844,-6.01733 5.99578,-6.01733 3.31137,0 5.99577,2.69405 5.99577,6.01733 0,3.32327 -2.6844,6.01732 -5.99577,6.01732 z m 84.94015,3.00866 c -3.31137,0 -5.99577,-2.69404 -5.99577,-6.01732 0,-3.32328 2.6844,-6.01732 5.99577,-6.01732 3.31138,0 5.99578,2.69404 5.99578,6.01732 0,3.32328 -2.6844,6.01732 -5.99578,6.01732 z"/></defs><g id="Page-1" fill="none" fill-rule="evenodd" stroke="none" stroke-width="1"><g id="logo"><g id="fill/blue" fill="#41bdf5"><rect id="Rectangle-2" width="2100" height="500" x="0" y="0" fill="#2eade6" fill-opacity="1" stroke-width="2.049" ry="50.847"/><text id="text881" x="575.651" y="198.948" fill="#000" fill-opacity="1" stroke="none" stroke-width="1" font-family="sans-serif" font-size="8" font-style="normal" font-weight="normal" letter-spacing="0" word-spacing="0" xml:space="preserve" style="line-height:0"><tspan style="line-height:1.29999995;-inkscape-font-specification:Roboto" id="tspan852" fill="#fff" stroke-width="1" font-family="Roboto" font-size="173.333" font-stretch="normal" font-style="normal" font-variant="normal" font-weight="normal">Log in to</tspan><tspan font-size="173.333" style="line-height:1.29999995;-inkscape-font-specification:Roboto" id="tspan887" x="575.651" y="424.281" fill="#fff" stroke-width="1" font-family="Roboto" font-stretch="normal" font-style="normal" font-variant="normal" font-weight="normal">Home Assistant</tspan></text></g><g id="house-with-large-tree" transform="translate(52,70)"><mask id="mask-2" fill="#fff"><use id="use11" width="100%" height="100%" x="0" y="0" xlink:href="#path-1"/></mask><g id="fill/white" fill="#fff" fill-rule="evenodd" mask="url(#mask-2)"><rect id="rect15" width="396" height="351" x="0" y="0"/></g></g></g></g></svg>