<?xml version="1.0" encoding="UTF-8" standalone="no"?>
<!-- Created with Inkscape (http://www.inkscape.org/) -->

<svg
   xmlns:dc="http://purl.org/dc/elements/1.1/"
   xmlns:cc="http://creativecommons.org/ns#"
   xmlns:rdf="http://www.w3.org/1999/02/22-rdf-syntax-ns#"
   xmlns:svg="http://www.w3.org/2000/svg"
   xmlns="http://www.w3.org/2000/svg"
   xmlns:sodipodi="http://sodipodi.sourceforge.net/DTD/sodipodi-0.dtd"
   xmlns:inkscape="http://www.inkscape.org/namespaces/inkscape"
   width="300mm"
   height="150mm"
   viewBox="0 0 300 150"
   version="1.1"
   id="svg8"
   inkscape:version="0.92.3 (2405546, 2018-03-11)"
   sodipodi:docname="banner.svg"
   inkscape:export-filename="/home/aidan/projects/js/home-panel/docs/resources/banner.png"
   inkscape:export-xdpi="76.199997"
   inkscape:export-ydpi="76.199997">
  <defs
     id="defs2" />
  <sodipodi:namedview
     id="base"
     pagecolor="#607d8b"
     bordercolor="#666666"
     borderopacity="1.0"
     inkscape:pageopacity="1"
     inkscape:pageshadow="2"
     inkscape:zoom="0.7"
     inkscape:cx="501.42857"
     inkscape:cy="445.71429"
     inkscape:document-units="mm"
     inkscape:current-layer="layer1"
     showgrid="false"
     inkscape:window-width="1920"
     inkscape:window-height="1014"
     inkscape:window-x="0"
     inkscape:window-y="0"
     inkscape:window-maximized="1" />
  <metadata
     id="metadata5">
    <rdf:RDF>
      <cc:Work
         rdf:about="">
        <dc:format>image/svg+xml</dc:format>
        <dc:type
           rdf:resource="http://purl.org/dc/dcmitype/StillImage" />
        <dc:title></dc:title>
      </cc:Work>
    </rdf:RDF>
  </metadata>
  <g
     inkscape:label="Layer 1"
     inkscape:groupmode="layer"
     id="layer1"
     transform="translate(0,-147)">
    <path
       id="path815"
       d="m 135.52559,230.20985 h -11.06897 v 49.19548 H 81.410691 v -20.47776 l 17.156878,-17.15672 4.366081,0.73677 c 7.13332,0 12.91377,-5.7805 12.91377,-12.9139 0,-7.13342 -5.78045,-12.91368 -12.91377,-12.91368 a 12.913792,12.913792 0 0 0 -12.913781,12.91368 l 0.614981,4.36622 -9.224138,9.34697 v -33.69869 c 4.058644,-2.21263 6.764375,-6.45707 6.764375,-11.37646 A 12.913792,12.913792 0 0 0 75.261298,185.31785 12.913792,12.913792 0 0 0 62.347507,198.23176 c 0,4.91939 2.705754,9.16266 6.764376,11.37646 v 33.69869 l -9.224139,-9.34697 0.614982,-4.36622 a 12.913792,12.913792 0 0 0 -12.913793,-12.91368 12.913792,12.913792 0 0 0 -12.913792,12.91368 12.913792,12.913792 0 0 0 12.913792,12.91391 l 4.366111,-0.73678 17.156883,17.15673 v 20.47776 H 26.065961 V 230.20985 H 15.304463 c -2.582757,0 -5.104018,0 -5.104018,-1.29224 0.06043,-1.35269 2.644257,-3.93557 5.28849,-6.5798 l 53.622992,-53.62306 c 2.029251,-2.02901 4.12012,-4.12009 6.149414,-4.12009 2.029252,0 4.12012,2.09177 6.149447,4.12009 l 24.597672,24.59762 v -6.14934 h 12.29885 v 18.44827 l 17.09538,17.09536 c 2.45979,2.4597 4.98105,4.98098 5.04254,6.2723 0,1.2295 -2.45978,1.2295 -4.91955,1.2295 m -87.936747,-6.14935 a 5.5344824,5.5344824 0 0 1 5.534483,5.53437 5.5344824,5.5344824 0 0 1 -5.534483,5.53459 5.5344824,5.5344824 0 0 1 -5.534483,-5.53459 5.5344824,5.5344824 0 0 1 5.534483,-5.53437 m 55.344797,0 c 3.07473,0 5.53448,2.4597 5.53448,5.53437 0,3.07468 -2.45975,5.53459 -5.53448,5.53459 a 5.5344824,5.5344824 0 0 1 -5.534465,-5.53459 5.5344824,5.5344824 0 0 1 5.534465,-5.53437 M 75.261341,192.69692 c 3.074724,0 5.534488,2.4597 5.534488,5.53461 0,3.07467 -2.459764,5.53437 -5.534488,5.53437 -3.07469,0 -5.534476,-2.4597 -5.534476,-5.53437 0,-3.07491 2.459786,-5.53461 5.534476,-5.53461 z"
       inkscape:connector-curvature="0"
       style="fill:#f9f9f9;stroke-width:6.14942455" />
    <text
       xml:space="preserve"
       style="font-style:normal;font-variant:normal;font-weight:normal;font-stretch:normal;font-size:10.58333302px;line-height:1.25;font-family:Roboto;-inkscape-font-specification:Roboto;letter-spacing:0px;word-spacing:0px;fill:#000000;fill-opacity:1;stroke:none;stroke-width:0.26458332"
       x="151.49287"
       y="213.88052"
       id="text828"><tspan
         sodipodi:role="line"
         id="tspan826"
         x="151.49287"
         y="213.88052"
         style="font-size:50.79999924px;fill:#f9f9f9;stroke-width:0.26458332">Home</tspan><tspan
         sodipodi:role="line"
         x="151.49287"
         y="277.38049"
         style="font-size:50.79999924px;fill:#f9f9f9;stroke-width:0.26458332"
         id="tspan830">Panel</tspan></text>
  </g>
</svg>
