<?xml version="1.0" encoding="UTF-8" standalone="no"?>
<svg
   xmlns:dc="http://purl.org/dc/elements/1.1/"
   xmlns:cc="http://creativecommons.org/ns#"
   xmlns:rdf="http://www.w3.org/1999/02/22-rdf-syntax-ns#"
   xmlns:svg="http://www.w3.org/2000/svg"
   xmlns="http://www.w3.org/2000/svg"
   xmlns:sodipodi="http://sodipodi.sourceforge.net/DTD/sodipodi-0.dtd"
   xmlns:inkscape="http://www.inkscape.org/namespaces/inkscape"
   version="1.1"
   width="640"
   height="480"
   id="svg52"
   sodipodi:docname="icon-banner.svg"
   inkscape:version="0.92.3 (2405546, 2018-03-11)"
   inkscape:export-filename="/home/aidan/projects/js/home-panel/docs/resources/banner.png"
   inkscape:export-xdpi="96"
   inkscape:export-ydpi="96">
  <metadata
     id="metadata56">
    <rdf:RDF>
      <cc:Work
         rdf:about="">
        <dc:format>image/svg+xml</dc:format>
        <dc:type
           rdf:resource="http://purl.org/dc/dcmitype/StillImage" />
        <dc:title></dc:title>
      </cc:Work>
    </rdf:RDF>
  </metadata>
  <sodipodi:namedview
     pagecolor="#ffffff"
     bordercolor="#666666"
     borderopacity="1"
     objecttolerance="10"
     gridtolerance="10"
     guidetolerance="10"
     inkscape:pageopacity="0"
     inkscape:pageshadow="2"
     inkscape:window-width="1920"
     inkscape:window-height="1013"
     id="namedview54"
     showgrid="false"
     inkscape:zoom="1.2291667"
     inkscape:cx="380.44598"
     inkscape:cy="170.51235"
     inkscape:window-x="0"
     inkscape:window-y="0"
     inkscape:window-maximized="1"
     inkscape:current-layer="g50" />
  <defs
     id="defs25">
    <linearGradient
       x1="2.6356499"
       y1="15.67995"
       x2="34.339062"
       y2="47.383362"
       gradientUnits="userSpaceOnUse"
       id="color-1"
       gradientTransform="translate(0,0.7489362)">
      <stop
         offset="0"
         stop-color="#000000"
         stop-opacity="0.3"
         id="stop2" />
      <stop
         offset="1"
         stop-color="#000000"
         stop-opacity="0"
         id="stop4" />
    </linearGradient>
    <filter
       id="dropshadow-base">
      <feColorMatrix
         type="matrix"
         values="0 0 0 0 0  0 0 0 0 0  0 0 0 0 0  0 0 0 .8 0"
         id="feColorMatrix7" />
      <feOffset
         dx="0"
         dy="1"
         id="feOffset9" />
      <feGaussianBlur
         stdDeviation="1"
         id="feGaussianBlur11"
         result="result1" />
      <feComposite
         in="SourceGraphic"
         in2="result1"
         id="feComposite13" />
    </filter>
    <filter
       id="dropshadow-banner"
       x="-0.1"
       y="-0.1"
       width="1.2"
       height="1.3">
      <feColorMatrix
         type="matrix"
         values="0 0 0 0 0  0 0 0 0 0  0 0 0 0 0  0 0 0 .4 0"
         id="feColorMatrix16" />
      <feOffset
         dx="0"
         dy="1"
         id="feOffset18" />
      <feGaussianBlur
         stdDeviation="0.5"
         id="feGaussianBlur20"
         result="result1" />
      <feComposite
         in="SourceGraphic"
         in2="result1"
         id="feComposite22" />
    </filter>
  </defs>
  <g
     stroke-width="none"
     stroke-miterlimit="10"
     font-weight="none"
     font-size="none"
     text-anchor="none"
     style="font-family:none;mix-blend-mode:normal;fill:none;fill-rule:nonzero;stroke:none;stroke-linecap:butt;stroke-linejoin:miter;stroke-miterlimit:10;stroke-dasharray:none;stroke-dashoffset:0"
     id="g50"
     transform="matrix(10.681818,0,0,10.681818,-16.363636,-16.363628)">
    <path
       d="M 4.6808511,40 C 3.2002573,40 2,39.10457 2,38 V 10 C 2,8.89543 3.2002573,8 4.6808511,8 H 58.297873 c 1.480593,0 2.680851,0.89543 2.680851,2 v 28 c 0,1.10457 -1.200258,2 -2.680851,2 z"
       id="base 1 5 1"
       inkscape:connector-curvature="0"
       style="fill:#607d8b;stroke-width:1.15776753" />
    <path
       d="m 5.3063,31.562566 v -4.45109 l -2.67065,-2.67065 8.90217,-8.01195 8.90214,8.01195 16.3081,15.527429 -22.2554,0.02914 z"
       id="path28"
       inkscape:connector-curvature="0"
       style="fill:url(#color-1);stroke-width:1"
       sodipodi:nodetypes="cccccccc" />
    <path
       d="m 20.43996,23.6919 h -2.67065 v 7.12174 c -6.58805,-0.01124 -6.83322,-0.01721 -12.46302,0 V 23.6919 H 2.63564 l 8.90217,-8.01195 z M 6.48059,22.67675 v 5.0145 c 10e-6,0.64594 0.41892,0.83573 0.93565,0.83573 h 8.42046 c 0.51673,2e-5 0.93564,-0.09762 0.93565,-0.83573 v -5.0145 c 0,-0.6482 -0.42098,-0.83573 -0.93565,-0.83573 H 7.41624 c -0.51921,0 -0.93565,0.15682 -0.93565,0.83573 z m 9.28427,0.036 v 4.91091 H 7.60191 v -4.91091 z"
       id="path3743 1 1"
       inkscape:connector-curvature="0"
       style="fill:none;stroke-width:0" />
    <g
       id="svg1137 2"
       style="stroke-width:0"
       transform="translate(0,0.75320463)">
      <g
         id="layer1 1">
        <g
           id="g1692 1">
          <path
             d="M 11.53781,15.67995 2.63564,23.6919 h 2.67065 v 7.12174 c 5.62979,-0.01721 5.87497,-0.01124 12.46302,0 V 23.6919 h 2.67065 z m -4.12157,6.16107 h 8.42046 c 0.51467,0 0.93565,0.18753 0.93565,0.83573 v 5.0145 c -10e-6,0.73811 -0.41892,0.83575 -0.93565,0.83573 H 7.41624 c -0.51673,0 -0.93564,-0.1898 -0.93565,-0.83573 v -5.0145 c 0,-0.67891 0.41644,-0.83573 0.93565,-0.83573 z"
             id="path3743 1"
             inkscape:connector-curvature="0"
             style="fill:#ffffff" />
          <path
             d="m 7.60191,22.71275 v 4.91091 h 8.16295 v -4.91091 z"
             id="path3743-6 1"
             inkscape:connector-curvature="0"
             style="fill:#f5f5f5;fill-opacity:0.94118" />
        </g>
      </g>
    </g>
    <path
       d="M 2,24 C 2,11.84974 11.84974,2 24,2 36.15026,2 46,11.84974 46,24 46,36.15026 36.15026,46 24,46 11.84974,46 2,36.15026 2,24 Z"
       id="base 1 1 1"
       inkscape:connector-curvature="0"
       style="fill:none;stroke-width:1" />
    <g
       id="svg1137 1 1"
       font-weight="400"
       font-size="14"
       style="font-weight:400;font-size:14px;font-family:Roboto, sans-serif;text-anchor:start;fill:#000000;stroke-width:1">
      <g
         id="layer1 1 1">
        <g
           id="g1692 1 1" />
      </g>
    </g>
    <rect
       x="2"
       y="2"
       width="44"
       height="22"
       id="rect40"
       style="fill:none;stroke-width:1" />
    <path
       d="M 2,24 V 2 h 44 v 22 z"
       id="path42"
       inkscape:connector-curvature="0"
       style="fill:none;stroke-width:1" />
    <path
       d="M 2,24 V 2 h 44 v 22 z"
       id="path44"
       inkscape:connector-curvature="0"
       style="fill:none;stroke-width:1" />
    <path
       d="M 2,24 V 2 h 44 v 22 z"
       id="path46"
       inkscape:connector-curvature="0"
       style="fill:none;stroke-width:1" />
    <path
       d="M 2,24 V 2 h 44 v 22 z"
       id="path48"
       inkscape:connector-curvature="0"
       style="fill:none;stroke-width:1" />
  </g>
  <text
     xml:space="preserve"
     style="font-style:normal;font-weight:normal;font-size:40px;line-height:1.25;font-family:sans-serif;letter-spacing:0px;word-spacing:0px;opacity:1;fill:#000000;fill-opacity:1;stroke:none"
     x="242.18831"
     y="213.41145"
     id="text2063"><tspan
       sodipodi:role="line"
       id="tspan2061"
       x="242.18831"
       y="213.41145"
       style="font-style:normal;font-variant:normal;font-weight:normal;font-stretch:normal;font-size:133.33332825px;line-height:1.10000002;font-family:Roboto;-inkscape-font-specification:Roboto;fill:#fafafa;fill-opacity:1">Home</tspan><tspan
       sodipodi:role="line"
       x="242.18831"
       y="360.07812"
       id="tspan2065"
       style="font-style:normal;font-variant:normal;font-weight:normal;font-stretch:normal;font-size:133.33332825px;line-height:1.10000002;font-family:Roboto;-inkscape-font-specification:Roboto;fill:#fafafa;fill-opacity:1">Panel</tspan></text>
</svg>
