<?xml version="1.0" encoding="UTF-8" standalone="no"?>
<svg
   xmlns:dc="http://purl.org/dc/elements/1.1/"
   xmlns:cc="http://creativecommons.org/ns#"
   xmlns:rdf="http://www.w3.org/1999/02/22-rdf-syntax-ns#"
   xmlns:svg="http://www.w3.org/2000/svg"
   xmlns="http://www.w3.org/2000/svg"
   xmlns:sodipodi="http://sodipodi.sourceforge.net/DTD/sodipodi-0.dtd"
   xmlns:inkscape="http://www.inkscape.org/namespaces/inkscape"
   version="1.1"
   width="48"
   height="48"
   id="svg49"
   sodipodi:docname="icon.svg"
   inkscape:export-filename="/home/aidan/projects/js/home-panel/docs/resources/icon.png"
   inkscape:export-xdpi="1090.9091"
   inkscape:export-ydpi="1090.9091"
   inkscape:version="0.92.3 (2405546, 2018-03-11)">
  <metadata
     id="metadata53">
    <rdf:RDF>
      <cc:Work
         rdf:about="">
        <dc:format>image/svg+xml</dc:format>
        <dc:type
           rdf:resource="http://purl.org/dc/dcmitype/StillImage" />
      </cc:Work>
    </rdf:RDF>
  </metadata>
  <sodipodi:namedview
     pagecolor="#ffffff"
     bordercolor="#666666"
     borderopacity="1"
     objecttolerance="10"
     gridtolerance="10"
     guidetolerance="10"
     inkscape:pageopacity="0"
     inkscape:pageshadow="2"
     inkscape:window-width="1920"
     inkscape:window-height="1014"
     id="namedview51"
     showgrid="false"
     inkscape:zoom="4.9166667"
     inkscape:cx="2.1355932"
     inkscape:cy="24"
     inkscape:window-x="0"
     inkscape:window-y="0"
     inkscape:window-maximized="1"
     inkscape:current-layer="svg49" />
  <defs
     id="defs25">
    <linearGradient
       x1="8.44323"
       y1="8.57498"
       x2="69.2553"
       y2="65.69982"
       gradientUnits="userSpaceOnUse"
       id="color-1">
      <stop
         offset="0"
         stop-color="#000000"
         stop-opacity="0.35"
         id="stop2" />
      <stop
         offset="1"
         stop-color="#000000"
         stop-opacity="0"
         id="stop4" />
    </linearGradient>
    <filter
       id="dropshadow-base">
      <feColorMatrix
         type="matrix"
         values="0 0 0 0 0  0 0 0 0 0  0 0 0 0 0  0 0 0 .8 0"
         id="feColorMatrix7" />
      <feOffset
         dx="0"
         dy="1"
         id="feOffset9" />
      <feGaussianBlur
         stdDeviation="1"
         id="feGaussianBlur11"
         result="result1" />
      <feComposite
         in="SourceGraphic"
         in2="result1"
         id="feComposite13" />
    </filter>
    <filter
       id="dropshadow-banner"
       x="-10%"
       y="-10%"
       width="120%"
       height="130%">
      <feColorMatrix
         type="matrix"
         values="0 0 0 0 0  0 0 0 0 0  0 0 0 0 0  0 0 0 .4 0"
         id="feColorMatrix16" />
      <feOffset
         dx="0"
         dy="1"
         id="feOffset18" />
      <feGaussianBlur
         stdDeviation="0.5"
         id="feGaussianBlur20"
         result="result1" />
      <feComposite
         in="SourceGraphic"
         in2="result1"
         id="feComposite22" />
    </filter>
  </defs>
  <g
     fill="none"
     fill-rule="nonzero"
     stroke="none"
     stroke-width="none"
     stroke-linecap="butt"
     stroke-linejoin="miter"
     stroke-miterlimit="10"
     stroke-dasharray=""
     stroke-dashoffset="0"
     font-family="none"
     font-weight="none"
     font-size="none"
     text-anchor="none"
     style="mix-blend-mode: normal"
     id="g47">
    <path
       d="M7,43c-1.10457,0 -2,-0.89543 -2,-2v-34c0,-1.10457 0.89543,-2 2,-2h34c1.10457,0 2,0.89543 2,2v34c0,1.10457 -0.89543,2 -2,2z"
       id="base 1 5 1"
       fill="#607d8b"
       stroke-width="1" />
    <path
       d="M12.23327,36.00134l0,-8.18714l-3.73103,-3.73103c-0.03807,-0.03807 -0.05901,-0.08487 -0.05901,-0.14239c0.01469,-0.32318 0.63167,-0.94016 1.26335,-1.57184l12.80973,-12.80973c0.48476,-0.48476 0.98423,-0.98423 1.46901,-0.98423c0.48476,0 0.98423,0.49947 1.46901,0.98423l5.87603,5.87603v-1.46901h2.93801l8.73162,8.73162v18.30215c0,1.10457 -0.89543,2 -2,2l-21.76807,0z"
       fill="url(#color-1)"
       stroke-width="1"
       id="path28" />
    <path
       d="M38.38158,24.24928h-2.64421v11.75205h-10.28305v-4.89179l4.09853,-4.09853l1.04299,0.17628c1.70405,0 3.08491,-1.38087 3.08491,-3.08491c0,-1.70405 -1.38087,-3.08491 -3.08491,-3.08491c-1.70375,0 -3.08491,1.38116 -3.08491,3.08491l0.1469,1.04299l-2.20351,2.23289v-8.05016c0.96954,-0.52884 1.61591,-1.54246 1.61591,-2.71766c0,-1.70375 -1.38116,-3.08491 -3.08491,-3.08491c-0.81817,0 -1.60283,0.32502 -2.18136,0.90355c-0.57853,0.57853 -0.90355,1.36319 -0.90355,2.18136c0,1.17521 0.64636,2.18882 1.61591,2.71766v8.05016l-2.20351,-2.23289l0.1469,-1.04299c0,-1.70375 -1.38116,-3.08491 -3.08491,-3.08491c-1.70375,0 -3.08491,1.38116 -3.08491,3.08491c0,1.70375 1.38116,3.08491 3.08491,3.08491l1.04299,-0.17628l4.09853,4.09853v4.89179h-10.28305v-11.75205h-2.57076c-0.61698,0 -1.21928,0 -1.21928,-0.30849c0.01469,-0.32318 0.63167,-0.94016 1.26335,-1.57184l12.80974,-12.80974c0.48477,-0.48477 0.98423,-0.98423 1.46901,-0.98423c0.48477,0 0.98423,0.49946 1.46901,0.98423l5.87603,5.87603v-1.46901h2.93801v4.40702l4.08384,4.08384c0.5876,0.5876 1.1899,1.1899 1.20459,1.49839c0,0.2938 -0.5876,0.2938 -1.17521,0.2938zM17.37478,22.78028c0.73018,0 1.32211,0.59193 1.32211,1.32211c0,0.35064 -0.13929,0.68693 -0.38724,0.93487c-0.24794,0.24794 -0.58423,0.38724 -0.93487,0.38724c-0.73018,0 -1.32211,-0.59193 -1.32211,-1.32211c0,-0.35064 0.13929,-0.68693 0.38724,-0.93487c0.24794,-0.24794 0.58423,-0.38724 0.93487,-0.38724zM30.59584,22.78028c0.7345,0 1.32211,0.5876 1.32211,1.32211c0,0.7345 -0.5876,1.32211 -1.32211,1.32211c-0.73018,0 -1.32211,-0.59193 -1.32211,-1.32211c0,-0.35064 0.13929,-0.68693 0.38724,-0.93487c0.24794,-0.24794 0.58423,-0.38724 0.93487,-0.38724zM23.98531,15.28834c0.7345,0 1.32211,0.5876 1.32211,1.32211c0,0.7345 -0.5876,1.32211 -1.32211,1.32211c-0.7345,0 -1.32211,-0.5876 -1.32211,-1.32211c0,-0.7345 0.5876,-1.32211 1.32211,-1.32211z"
       fill="none"
       stroke-width="0"
       id="path30" />
    <path
       d="M35.73736,24.24928v11.75205h-10.28305v-4.89179l4.09853,-4.09853l1.04299,0.17628c1.70405,0 3.08491,-1.38087 3.08491,-3.08491c0,-1.70405 -1.38087,-3.08491 -3.08491,-3.08491c-1.70375,0 -3.08491,1.38116 -3.08491,3.08491l0.1469,1.04299l-2.20351,2.23289v-8.05016c0.96954,-0.52884 1.61591,-1.54246 1.61591,-2.71766c0,-1.70375 -1.38116,-3.08491 -3.08491,-3.08491c-0.81817,0 -1.60283,0.32502 -2.18136,0.90355c-0.57853,0.57853 -0.90355,1.36319 -0.90355,2.18136c0,1.17521 0.64636,2.18882 1.61591,2.71766v8.05016l-2.20351,-2.23289l0.1469,-1.04299c0,-1.70375 -1.38116,-3.08491 -3.08491,-3.08491c-1.70375,0 -3.08491,1.38116 -3.08491,3.08491c0,1.70375 1.38116,3.08491 3.08491,3.08491l1.04299,-0.17628l4.09853,4.09853v4.89179h-10.28305v-11.75205h-2.57076c-0.61698,0 -1.21928,0 -1.21928,-0.30849c0.01469,-0.32318 0.63167,-0.94016 1.26335,-1.57184l12.80974,-12.80974c0.48477,-0.48477 0.98423,-0.98423 1.46901,-0.98423c0.48477,0 0.98423,0.49946 1.46901,0.98423l5.87603,5.87603v-1.46901h2.93801v4.40702l4.08384,4.08384c0.5876,0.5876 1.1899,1.1899 1.20459,1.49839c0,0.2938 -0.5876,0.2938 -1.17521,0.2938zM18.69689,24.10238c0,0.35064 -0.13929,0.68693 -0.38724,0.93487c-0.24794,0.24794 -0.58423,0.38724 -0.93487,0.38724c-0.73018,0 -1.32211,-0.59193 -1.32211,-1.32211c0,-0.35064 0.13929,-0.68693 0.38724,-0.93487c0.24794,-0.24794 0.58423,-0.38724 0.93487,-0.38724c0.73018,0 1.32211,0.59193 1.32211,1.32211zM31.91795,24.10238c0,0.7345 -0.5876,1.32211 -1.32211,1.32211c-0.73018,0 -1.32211,-0.59193 -1.32211,-1.32211c0,-0.35064 0.13929,-0.68693 0.38724,-0.93487c0.24794,-0.24794 0.58423,-0.38724 0.93487,-0.38724c0.7345,0 1.32211,0.5876 1.32211,1.32211zM23.98531,15.28834c0.7345,0 1.32211,0.5876 1.32211,1.32211c0,0.7345 -0.5876,1.32211 -1.32211,1.32211c-0.7345,0 -1.32211,-0.5876 -1.32211,-1.32211c0,-0.7345 0.5876,-1.32211 1.32211,-1.32211z"
       fill="#fafafa"
       stroke-width="0"
       id="path32" />
    <path
       d="M2,24c0,-12.15026 9.84974,-22 22,-22c12.15026,0 22,9.84974 22,22c0,12.15026 -9.84974,22 -22,22c-12.15026,0 -22,-9.84974 -22,-22z"
       id="base 1 1 1"
       fill="none"
       stroke-width="1" />
    <g
       fill="#000000"
       stroke-width="1"
       font-family="Roboto, sans-serif"
       font-weight="400"
       font-size="14"
       text-anchor="start"
       id="g35" />
    <rect
       x="2"
       y="2"
       width="44"
       height="22"
       fill="none"
       stroke-width="1"
       id="rect37" />
    <path
       d="M2,24v-22h44v22z"
       fill="none"
       stroke-width="1"
       id="path39" />
    <path
       d="M2,24v-22h44v22z"
       fill="none"
       stroke-width="1"
       id="path41" />
    <path
       d="M2,24v-22h44v22z"
       fill="none"
       stroke-width="1"
       id="path43" />
    <path
       d="M2,24v-22h44v22z"
       fill="none"
       stroke-width="1"
       id="path45" />
  </g>
</svg>
