<?xml version="1.0" encoding="UTF-8" standalone="no"?>
<svg
   xmlns:dc="http://purl.org/dc/elements/1.1/"
   xmlns:cc="http://creativecommons.org/ns#"
   xmlns:rdf="http://www.w3.org/1999/02/22-rdf-syntax-ns#"
   xmlns:svg="http://www.w3.org/2000/svg"
   xmlns="http://www.w3.org/2000/svg"
   xmlns:sodipodi="http://sodipodi.sourceforge.net/DTD/sodipodi-0.dtd"
   xmlns:inkscape="http://www.inkscape.org/namespaces/inkscape"
   version="1.1"
   width="480"
   height="480"
   id="svg164"
   sodipodi:docname="icon-rect.svg"
   inkscape:version="0.92.3 (2405546, 2018-03-11)">
  <metadata
     id="metadata168">
    <rdf:RDF>
      <cc:Work
         rdf:about="">
        <dc:format>image/svg+xml</dc:format>
        <dc:type
           rdf:resource="http://purl.org/dc/dcmitype/StillImage" />
        <dc:title></dc:title>
      </cc:Work>
    </rdf:RDF>
  </metadata>
  <sodipodi:namedview
     pagecolor="#ffffff"
     bordercolor="#666666"
     borderopacity="1"
     objecttolerance="10"
     gridtolerance="10"
     guidetolerance="10"
     inkscape:pageopacity="0"
     inkscape:pageshadow="2"
     inkscape:window-width="1920"
     inkscape:window-height="1013"
     id="namedview166"
     showgrid="false"
     inkscape:zoom="1.2291667"
     inkscape:cx="194.961"
     inkscape:cy="233.90555"
     inkscape:window-x="0"
     inkscape:window-y="0"
     inkscape:window-maximized="1"
     inkscape:current-layer="svg164" />
  <defs
     id="defs137">
    <linearGradient
       x1="5.1933398"
       y1="6.3606701"
       x2="83.354759"
       y2="78.900688"
       gradientUnits="userSpaceOnUse"
       id="color-1">
      <stop
         offset="0"
         stop-color="#000000"
         stop-opacity="0.3"
         id="stop114" />
      <stop
         offset="1"
         stop-color="#000000"
         stop-opacity="0"
         id="stop116" />
    </linearGradient>
    <filter
       id="dropshadow-base">
      <feColorMatrix
         type="matrix"
         values="0 0 0 0 0  0 0 0 0 0  0 0 0 0 0  0 0 0 .8 0"
         id="feColorMatrix119" />
      <feOffset
         dx="0"
         dy="1"
         id="feOffset121" />
      <feGaussianBlur
         stdDeviation="1"
         id="feGaussianBlur123"
         result="result1" />
      <feComposite
         in="SourceGraphic"
         in2="result1"
         id="feComposite125" />
    </filter>
    <filter
       id="dropshadow-banner"
       x="-0.1"
       y="-0.1"
       width="1.2"
       height="1.3">
      <feColorMatrix
         type="matrix"
         values="0 0 0 0 0  0 0 0 0 0  0 0 0 0 0  0 0 0 .4 0"
         id="feColorMatrix128" />
      <feOffset
         dx="0"
         dy="1"
         id="feOffset130" />
      <feGaussianBlur
         stdDeviation="0.5"
         id="feGaussianBlur132"
         result="result1" />
      <feComposite
         in="SourceGraphic"
         in2="result1"
         id="feComposite134" />
    </filter>
  </defs>
  <g
     stroke-width="none"
     stroke-miterlimit="10"
     font-weight="none"
     font-size="none"
     text-anchor="none"
     style="font-family:none;mix-blend-mode:normal;fill:none;fill-rule:nonzero;stroke:none;stroke-linecap:butt;stroke-linejoin:miter;stroke-miterlimit:10;stroke-dasharray:none;stroke-dashoffset:0"
     id="g162"
     transform="matrix(11.363636,0,0,11.363636,-32.727272,-32.727256)">
    <path
       d="M 7,43 C 5.89543,43 5,42.10457 5,41 V 7 C 5,5.89543 5.89543,5 7,5 h 34 c 1.10457,0 2,0.89543 2,2 v 34 c 0,1.10457 -0.89543,2 -2,2 z"
       id="base 1 5"
       inkscape:connector-curvature="0"
       style="fill:#607d8b;stroke-width:1" />
    <path
       d="m 10.8148,38.21565 v -9.36912 l -5.62146,-5.62146 18.73822,-16.8644 18.73816,16.8644 0.33027,0.33027 V 41 c 0,1.10457 -0.89543,2 -2,2 H 15.59915 Z"
       id="path140"
       inkscape:connector-curvature="0"
       style="fill:url(#color-1);stroke-width:1" />
    <path
       d="m 42.66973,23.22507 h -5.62147 v 14.99058 c -13.86722,-0.02366 -14.38329,-0.03623 -26.23347,0 V 23.22507 H 5.19332 L 23.93154,6.36067 Z M 13.28658,21.08828 v 10.55504 c 10e-6,1.35963 0.88178,1.75914 1.96945,1.75914 H 32.9803 c 1.08767,3e-5 1.96944,-0.20548 1.96945,-1.75914 V 21.08828 c 0,-1.3644 -0.88612,-1.75914 -1.96945,-1.75914 H 15.25603 c -1.09288,0 -1.96945,0.3301 -1.96945,1.75914 z m 19.5425,0.07578 V 31.50105 H 15.64684 V 21.16406 Z"
       id="path3743 1 1"
       inkscape:connector-curvature="0"
       style="fill:none;stroke-width:0" />
    <g
       id="svg1137 2"
       style="stroke-width:0">
      <g
         id="layer1 1">
        <g
           id="g1692 1">
          <path
             d="M 23.93155,6.36067 5.19333,23.22507 h 5.62147 v 14.99058 c 11.85018,-0.03623 12.36625,-0.02366 26.23347,0 V 23.22507 h 5.62147 z M 15.25603,19.32914 H 32.9803 c 1.08333,0 1.96945,0.39474 1.96945,1.75914 v 10.55504 c -1e-5,1.55366 -0.88178,1.75917 -1.96945,1.75914 H 15.25603 c -1.08767,0 -1.96944,-0.3995 -1.96945,-1.75914 V 21.08828 c 0,-1.42904 0.87657,-1.75914 1.96945,-1.75914 z"
             id="path3743 1"
             inkscape:connector-curvature="0"
             style="fill:#ffffff" />
          <path
             d="M 15.64685,21.16406 V 31.50105 H 32.82909 V 21.16406 Z"
             id="path3743-6 1"
             inkscape:connector-curvature="0"
             style="fill:#f5f5f5;fill-opacity:0.94118" />
        </g>
      </g>
    </g>
    <path
       d="M 2,24 C 2,11.84974 11.84974,2 24,2 36.15026,2 46,11.84974 46,24 46,36.15026 36.15026,46 24,46 11.84974,46 2,36.15026 2,24 Z"
       id="base 1 1 1"
       inkscape:connector-curvature="0"
       style="fill:none;stroke-width:1" />
    <g
       id="svg1137 1 1"
       font-weight="400"
       font-size="14"
       style="font-weight:400;font-size:14px;font-family:Roboto, sans-serif;text-anchor:start;fill:#000000;stroke-width:1">
      <g
         id="layer1 1 1">
        <g
           id="g1692 1 1" />
      </g>
    </g>
    <rect
       x="2"
       y="2"
       width="44"
       height="22"
       id="rect152"
       style="fill:none;stroke-width:1" />
    <path
       d="M 2,24 V 2 h 44 v 22 z"
       id="path154"
       inkscape:connector-curvature="0"
       style="fill:none;stroke-width:1" />
    <path
       d="M 2,24 V 2 h 44 v 22 z"
       id="path156"
       inkscape:connector-curvature="0"
       style="fill:none;stroke-width:1" />
    <path
       d="M 2,24 V 2 h 44 v 22 z"
       id="path158"
       inkscape:connector-curvature="0"
       style="fill:none;stroke-width:1" />
    <path
       d="M 2,24 V 2 h 44 v 22 z"
       id="path160"
       inkscape:connector-curvature="0"
       style="fill:none;stroke-width:1" />
  </g>
</svg>
