<svg version="1.1" xmlns="http://www.w3.org/2000/svg" xmlns:xlink="http://www.w3.org/1999/xlink" width="48" height="48"><defs><linearGradient x1="8.44323" y1="8.57498" x2="69.2553" y2="65.69982" gradientUnits="userSpaceOnUse" id="color-1"><stop offset="0" stop-color="#000000" stop-opacity="0.35"></stop><stop offset="1" stop-color="#000000" stop-opacity="0"></stop></linearGradient><filter id="dropshadow-base"><feColorMatrix type="matrix" values="0 0 0 0 0  0 0 0 0 0  0 0 0 0 0  0 0 0 .8 0"></feColorMatrix> <feOffset dx="0" dy="1"></feOffset> <feGaussianBlur stdDeviation="1"></feGaussianBlur> <feComposite in="SourceGraphic"></feComposite></filter><filter id="dropshadow-banner" x="-10%" y="-10%" width="120%" height="130%"><feColorMatrix type="matrix" values="0 0 0 0 0  0 0 0 0 0  0 0 0 0 0  0 0 0 .4 0"></feColorMatrix> <feOffset dx="0" dy="1"></feOffset> <feGaussianBlur stdDeviation="0.5"></feGaussianBlur> <feComposite in="SourceGraphic"></feComposite></filter></defs><g fill="none" fill-rule="nonzero" stroke="none" stroke-width="none" stroke-linecap="butt" stroke-linejoin="miter" stroke-miterlimit="10" stroke-dasharray="" stroke-dashoffset="0" font-family="none" font-weight="none" font-size="none" text-anchor="none" style="mix-blend-mode: normal"><path d="M2,24c0,-12.15026 9.84974,-22 22,-22c12.15026,0 22,9.84974 22,22c0,12.15026 -9.84974,22 -22,22c-12.15026,0 -22,-9.84974 -22,-22z" id="base 1 6" fill="#607d8b" stroke-width="1"></path><path d="M12.23327,36.00134l0,-8.18714l-3.73103,-3.73103c-0.03807,-0.03807 -0.05901,-0.08487 -0.05901,-0.14239c0.01469,-0.32318 0.63167,-0.94016 1.26335,-1.57184l12.80973,-12.80973c0.48476,-0.48476 0.98423,-0.98423 1.46901,-0.98423c0.48476,0 0.98423,0.49947 1.46901,0.98423l5.87603,5.87603v-1.46901h2.93801l11.67158,11.67158c-0.83787,11.38539 -10.34059,20.36219 -21.93996,20.36219c-0.62111,0 -1.2362,-0.02574 -1.84427,-0.07621z" fill="url(#color-1)" stroke-width="1"></path><path d="M38.38158,24.24928h-2.64421v11.75205h-10.28305v-4.89179l4.09853,-4.09853l1.04299,0.17628c1.70405,0 3.08491,-1.38087 3.08491,-3.08491c0,-1.70405 -1.38087,-3.08491 -3.08491,-3.08491c-1.70375,0 -3.08491,1.38116 -3.08491,3.08491l0.1469,1.04299l-2.20351,2.23289v-8.05016c0.96954,-0.52884 1.61591,-1.54246 1.61591,-2.71766c0,-1.70375 -1.38116,-3.08491 -3.08491,-3.08491c-0.81817,0 -1.60283,0.32502 -2.18136,0.90355c-0.57853,0.57853 -0.90355,1.36319 -0.90355,2.18136c0,1.17521 0.64636,2.18882 1.61591,2.71766v8.05016l-2.20351,-2.23289l0.1469,-1.04299c0,-1.70375 -1.38116,-3.08491 -3.08491,-3.08491c-1.70375,0 -3.08491,1.38116 -3.08491,3.08491c0,1.70375 1.38116,3.08491 3.08491,3.08491l1.04299,-0.17628l4.09853,4.09853v4.89179h-10.28305v-11.75205h-2.57076c-0.61698,0 -1.21928,0 -1.21928,-0.30849c0.01469,-0.32318 0.63167,-0.94016 1.26335,-1.57184l12.80974,-12.80974c0.48477,-0.48477 0.98423,-0.98423 1.46901,-0.98423c0.48477,0 0.98423,0.49946 1.46901,0.98423l5.87603,5.87603v-1.46901h2.93801v4.40702l4.08384,4.08384c0.5876,0.5876 1.1899,1.1899 1.20459,1.49839c0,0.2938 -0.5876,0.2938 -1.17521,0.2938zM17.37478,22.78028c0.73018,0 1.32211,0.59193 1.32211,1.32211c0,0.35064 -0.13929,0.68693 -0.38724,0.93487c-0.24794,0.24794 -0.58423,0.38724 -0.93487,0.38724c-0.73018,0 -1.32211,-0.59193 -1.32211,-1.32211c0,-0.35064 0.13929,-0.68693 0.38724,-0.93487c0.24794,-0.24794 0.58423,-0.38724 0.93487,-0.38724zM30.59584,22.78028c0.7345,0 1.32211,0.5876 1.32211,1.32211c0,0.7345 -0.5876,1.32211 -1.32211,1.32211c-0.73018,0 -1.32211,-0.59193 -1.32211,-1.32211c0,-0.35064 0.13929,-0.68693 0.38724,-0.93487c0.24794,-0.24794 0.58423,-0.38724 0.93487,-0.38724zM23.98531,15.28834c0.7345,0 1.32211,0.5876 1.32211,1.32211c0,0.7345 -0.5876,1.32211 -1.32211,1.32211c-0.7345,0 -1.32211,-0.5876 -1.32211,-1.32211c0,-0.7345 0.5876,-1.32211 1.32211,-1.32211z" fill="none" stroke-width="0"></path><path d="M35.73736,24.24928v11.75205h-10.28305v-4.89179l4.09853,-4.09853l1.04299,0.17628c1.70405,0 3.08491,-1.38087 3.08491,-3.08491c0,-1.70405 -1.38087,-3.08491 -3.08491,-3.08491c-1.70375,0 -3.08491,1.38116 -3.08491,3.08491l0.1469,1.04299l-2.20351,2.23289v-8.05016c0.96954,-0.52884 1.61591,-1.54246 1.61591,-2.71766c0,-1.70375 -1.38116,-3.08491 -3.08491,-3.08491c-0.81817,0 -1.60283,0.32502 -2.18136,0.90355c-0.57853,0.57853 -0.90355,1.36319 -0.90355,2.18136c0,1.17521 0.64636,2.18882 1.61591,2.71766v8.05016l-2.20351,-2.23289l0.1469,-1.04299c0,-1.70375 -1.38116,-3.08491 -3.08491,-3.08491c-1.70375,0 -3.08491,1.38116 -3.08491,3.08491c0,1.70375 1.38116,3.08491 3.08491,3.08491l1.04299,-0.17628l4.09853,4.09853v4.89179h-10.28305v-11.75205h-2.57076c-0.61698,0 -1.21928,0 -1.21928,-0.30849c0.01469,-0.32318 0.63167,-0.94016 1.26335,-1.57184l12.80974,-12.80974c0.48477,-0.48477 0.98423,-0.98423 1.46901,-0.98423c0.48477,0 0.98423,0.49946 1.46901,0.98423l5.87603,5.87603v-1.46901h2.93801v4.40702l4.08384,4.08384c0.5876,0.5876 1.1899,1.1899 1.20459,1.49839c0,0.2938 -0.5876,0.2938 -1.17521,0.2938zM18.69689,24.10238c0,0.35064 -0.13929,0.68693 -0.38724,0.93487c-0.24794,0.24794 -0.58423,0.38724 -0.93487,0.38724c-0.73018,0 -1.32211,-0.59193 -1.32211,-1.32211c0,-0.35064 0.13929,-0.68693 0.38724,-0.93487c0.24794,-0.24794 0.58423,-0.38724 0.93487,-0.38724c0.73018,0 1.32211,0.59193 1.32211,1.32211zM31.91795,24.10238c0,0.7345 -0.5876,1.32211 -1.32211,1.32211c-0.73018,0 -1.32211,-0.59193 -1.32211,-1.32211c0,-0.35064 0.13929,-0.68693 0.38724,-0.93487c0.24794,-0.24794 0.58423,-0.38724 0.93487,-0.38724c0.7345,0 1.32211,0.5876 1.32211,1.32211zM23.98531,15.28834c0.7345,0 1.32211,0.5876 1.32211,1.32211c0,0.7345 -0.5876,1.32211 -1.32211,1.32211c-0.7345,0 -1.32211,-0.5876 -1.32211,-1.32211c0,-0.7345 0.5876,-1.32211 1.32211,-1.32211z" fill="#fafafa" stroke-width="0"></path><path d="M2,24c0,-12.15026 9.84974,-22 22,-22c12.15026,0 22,9.84974 22,22c0,12.15026 -9.84974,22 -22,22c-12.15026,0 -22,-9.84974 -22,-22z" id="base 1 1 1" fill="none" stroke-width="1"></path><g fill="#000000" stroke-width="1" font-family="Roboto, sans-serif" font-weight="400" font-size="14" text-anchor="start"></g><rect x="2" y="2" width="44" height="22" fill="none" stroke-width="1"></rect><path d="M2,24v-22h44v22z" fill="none" stroke-width="1"></path><path d="M2,24v-22h44v22z" fill="none" stroke-width="1"></path><path d="M2,24v-22h44v22z" fill="none" stroke-width="1"></path><path d="M2,24v-22h44v22z" fill="none" stroke-width="1"></path></g></svg>